<svg width="750" height="750" viewBox="0 0 750 750" fill="none" xmlns="http://www.w3.org/2000/svg">
<path d="M572.812 100.673C570.356 100.673 567.753 101.097 565.07 101.96L197.06 220.199C182.76 224.795 170.801 240.363 170.399 254.908L160.141 629.246C159.958 636.097 162.359 641.72 166.914 645.073C171.596 648.524 177.995 649.199 184.93 646.971L552.936 528.728C567.236 524.136 579.2 508.563 579.597 494.022L589.855 119.685L590.511 119.701L589.855 119.685C590.038 112.83 587.638 107.214 583.087 103.857C580.217 101.744 576.7 100.673 572.812 100.673ZM177.18 649.552C173.015 649.552 169.231 648.395 166.127 646.104C161.226 642.497 158.635 636.493 158.833 629.21L169.092 254.873C169.509 239.83 181.87 223.724 196.659 218.971L564.665 100.736C572.018 98.3712 578.838 99.1124 583.874 102.826C588.77 106.438 591.357 112.438 591.163 119.72L580.905 494.053C580.491 509.101 568.127 525.206 553.342 529.955L185.332 648.198C182.514 649.104 179.771 649.552 177.18 649.552Z" fill="url(#paint0_linear)"/>
<path d="M594.331 110.72C592.444 110.72 590.468 110.959 588.425 111.442L211.373 200.246C196.723 203.701 183.436 218.634 181.751 233.54L138.465 617.077C137.658 624.246 139.637 630.313 144.045 634.152C148.389 637.94 154.617 639.128 161.577 637.489L538.629 548.681C553.275 545.23 566.566 530.297 568.247 515.391L611.533 131.858C612.344 124.685 610.36 118.622 605.953 114.779C602.884 112.101 598.874 110.72 594.331 110.72ZM155.659 639.52C150.798 639.52 146.485 638.03 143.167 635.136C138.429 631.003 136.287 624.536 137.145 616.928L180.432 233.395C182.169 217.983 195.912 202.544 211.063 198.971L588.115 110.167C595.504 108.426 602.153 109.716 606.835 113.795C611.573 117.928 613.711 124.395 612.852 132.003L569.566 515.54C567.829 530.948 554.09 546.387 538.935 549.956L161.883 638.764C159.737 639.269 157.65 639.52 155.659 639.52Z" fill="url(#paint1_linear)"/>
<path d="M614.752 122.948C613.492 122.948 612.188 123.046 610.849 123.25L227.386 181.026C212.493 183.27 197.939 197.434 194.946 212.595L117.948 602.65C116.478 610.097 117.996 616.591 122.217 620.932C126.211 625.038 132.221 626.724 139.148 625.681L522.611 567.905C537.508 565.658 552.058 551.497 555.055 536.336L632.053 146.277L632.712 146.407L632.053 146.277C633.524 138.83 632.005 132.34 627.784 127.999C624.557 124.685 620.022 122.948 614.752 122.948ZM135.237 627.313C129.602 627.313 124.729 625.434 121.243 621.854C116.708 617.191 115.071 610.281 116.625 602.395L193.623 212.34C196.719 196.669 211.774 182.034 227.187 179.712L610.646 121.932C618.023 120.826 624.449 122.65 628.754 127.077C633.289 131.74 634.93 138.65 633.376 146.536L556.379 536.591C553.282 552.258 538.227 566.897 522.814 569.218L139.355 626.995C137.944 627.211 136.573 627.313 135.237 627.313Z" fill="url(#paint2_linear)"/>
<path d="M633.885 137.304C633.312 137.304 632.732 137.324 632.144 137.363L245.04 162.708C230.009 163.689 214.266 176.944 209.942 192.253L98.7829 586.018C96.6486 593.579 97.682 600.658 101.621 605.438C105.249 609.838 111.032 612.014 117.857 611.567L504.96 586.222C519.988 585.238 535.734 571.987 540.055 556.677L651.217 162.912C653.352 155.351 652.314 148.273 648.376 143.493C645.061 139.469 639.962 137.304 633.885 137.304ZM116.108 612.975C109.613 612.975 104.141 610.638 100.556 606.289C96.3346 601.163 95.206 593.646 97.4635 585.654L208.622 191.889C213.089 176.073 229.381 162.375 244.945 161.359L632.053 136.014C639.35 135.54 645.522 137.893 649.441 142.642C653.662 147.763 654.791 155.289 652.537 163.277L541.374 557.042C536.911 572.857 520.616 586.552 505.052 587.571L117.944 612.916C117.324 612.956 116.716 612.975 116.108 612.975Z" fill="url(#paint3_linear)"/>
<path d="M263.653 145.45C248.749 145.45 232.263 157.548 226.679 172.689L81.1565 567.23C78.3108 574.956 78.7798 582.419 82.4482 587.705C85.6874 592.383 91.1763 595.038 97.8892 595.183L485.76 603.473C500.847 603.803 517.663 591.579 523.323 576.242L668.841 181.701C671.687 173.975 671.222 166.513 667.553 161.226C664.31 156.548 658.825 153.893 652.108 153.748L264.241 145.458C264.047 145.45 263.848 145.45 263.653 145.45ZM486.34 604.854C486.134 604.854 485.935 604.85 485.728 604.846L97.8573 596.556C90.6834 596.403 84.8012 593.532 81.2957 588.481C77.3728 582.822 76.8443 574.909 79.853 566.764L225.371 172.223C231.142 156.579 248.216 144.077 263.661 144.077C263.864 144.077 264.067 144.081 264.269 144.085L652.136 152.375C659.314 152.528 665.2 155.399 668.702 160.454C672.625 166.109 673.153 174.027 670.149 182.172L669.497 181.932L670.149 182.172L524.627 576.713C518.86 592.352 501.781 604.854 486.34 604.854Z" fill="url(#paint4_linear)"/>
<path d="M281.844 129.273C267.584 129.273 251.598 139.85 245.076 154.081L65.2622 546.375C61.6811 554.191 61.542 561.999 64.8806 567.791C67.7224 572.736 72.9011 575.857 79.4551 576.587L465.116 619.489C480.072 621.155 497.933 610.1 504.921 594.853L684.738 202.555C688.319 194.74 688.459 186.932 685.12 181.14C682.27 176.195 677.1 173.073 670.546 172.344L284.885 129.442C283.883 129.328 282.866 129.273 281.844 129.273ZM468.125 621.046C467.056 621.046 465.998 620.991 464.957 620.873L79.2961 577.971C72.2851 577.191 66.7246 573.822 63.6524 568.481C60.0872 562.293 60.2065 554.026 63.9743 545.799L243.788 153.5C251.014 137.744 269.515 126.34 285.044 128.057L670.705 170.959C677.716 171.74 683.268 175.108 686.348 180.454C689.909 186.638 689.794 194.905 686.022 203.132L685.382 202.842L686.022 203.132L506.208 595.426C499.467 610.124 482.914 621.046 468.125 621.046Z" fill="url(#paint5_linear)"/>
<path d="M301.271 114.269C287.662 114.269 272.341 123.407 265.052 136.595L51.2716 523.544C46.9433 531.375 46.1565 539.477 49.1056 545.767C51.538 550.967 56.3788 554.548 62.7301 555.853L443.137 634.104C457.878 637.14 476.638 627.375 484.944 612.336L698.728 225.387L699.356 225.724L698.728 225.387C703.057 217.556 703.844 209.457 700.895 203.159C698.458 197.963 693.621 194.379 687.27 193.073L306.863 114.822C305.051 114.45 303.179 114.269 301.271 114.269ZM448.681 636.069C446.69 636.069 444.734 635.881 442.839 635.489L62.4359 557.238C55.6276 555.838 50.433 551.979 47.8018 546.363C44.662 539.657 45.465 531.093 50.0078 522.865L263.792 135.916C272.385 120.371 291.836 110.289 307.157 113.438L687.564 191.689C694.365 193.089 699.563 196.956 702.194 202.567C705.338 209.273 704.531 217.838 699.988 226.065L486.204 613.01C478.677 626.638 462.803 636.069 448.681 636.069Z" fill="url(#paint6_linear)"/>
<path d="M321.804 100.575C308.887 100.575 294.36 108.367 286.495 120.41L39.3487 498.858C34.2812 506.615 32.8068 514.952 35.3028 521.728C37.3059 527.172 41.7811 531.207 47.9018 533.081L419.95 647.171C434.362 651.591 453.9 643.226 463.503 628.52L710.652 250.077L711.261 250.465L710.652 250.077C715.72 242.32 717.194 233.983 714.698 227.203C712.691 221.76 708.216 217.724 702.095 215.85L330.047 101.76C327.44 100.96 324.662 100.575 321.804 100.575ZM428.141 649.779C425.153 649.779 422.251 649.379 419.517 648.544L47.4725 534.454C40.9066 532.442 36.0976 528.097 33.9315 522.219C31.2845 515.015 32.8066 506.218 38.1245 498.077L285.274 119.63C295.207 104.422 315.476 95.7871 330.484 100.387L702.528 214.477C709.094 216.493 713.903 220.834 716.061 226.713C718.716 233.917 717.19 242.716 711.877 250.854L464.723 629.297C456.599 641.74 441.555 649.779 428.141 649.779Z" fill="url(#paint7_linear)"/>
<path d="M343.314 88.3284C331.132 88.3284 317.527 94.8811 309.292 105.689L29.6509 472.442C23.8601 480.038 21.6741 488.544 23.6494 495.771C25.1995 501.461 29.2853 505.936 35.1477 508.379L395.701 658.532C409.66 664.344 429.846 657.485 440.705 643.242L720.35 276.489L720.938 276.928L720.35 276.489C726.141 268.893 728.327 260.391 726.352 253.156C724.802 247.469 720.712 242.991 714.849 240.552L354.299 90.3948C350.925 88.9909 347.193 88.3284 343.314 88.3284ZM406.636 662.046C402.57 662.046 398.659 661.348 395.125 659.877L34.5754 509.724C28.2838 507.105 23.8918 502.285 22.2186 496.156C20.128 488.485 22.4054 479.52 28.4704 471.564L308.112 104.81C319.351 90.0654 340.329 82.9949 354.872 89.0537L715.422 239.206C721.717 241.83 726.105 246.646 727.778 252.779C729.873 260.446 727.595 269.407 721.526 277.367L441.889 644.12C433.376 655.281 419.29 662.046 406.636 662.046Z" fill="url(#paint8_linear)"/>
<path d="M365.663 77.6459C354.28 77.6459 341.7 83.081 333.298 92.5869L22.33 444.454C15.8436 451.795 12.9143 460.391 14.3014 468.038C15.3785 473.96 19.043 478.877 24.6272 481.881L370.543 668.057C383.925 675.257 404.628 670.002 416.699 656.344L727.667 304.477C734.157 297.136 737.083 288.54 735.696 280.897C734.619 274.971 730.958 270.053 725.37 267.05L379.454 80.8773C375.388 78.6852 370.639 77.6459 365.663 77.6459ZM384.295 672.744C379.077 672.744 374.096 671.654 369.824 669.355L23.9078 483.183C17.9182 479.956 13.9835 474.673 12.8269 468.297C11.3603 460.207 14.4088 451.159 21.1972 443.481L332.169 91.6145C344.677 77.4616 366.211 72.0615 380.173 79.5753L726.089 265.752C732.083 268.971 736.017 274.262 737.174 280.634C738.641 288.724 735.592 297.767 728.804 305.449L728.236 304.964L728.804 305.449L417.832 657.316C409.151 667.136 396.119 672.744 384.295 672.744Z" fill="url(#paint9_linear)"/>
<path d="M388.719 68.6577C378.202 68.6577 366.724 73.085 358.369 81.2615L17.5048 415.062C10.3666 422.054 6.69411 430.654 7.42939 438.661C7.99377 444.814 11.2131 450.168 16.4873 453.736L344.641 675.603C357.324 684.179 378.4 680.618 391.628 667.665L732.492 333.869L733.033 334.403L732.492 333.869C739.634 326.877 743.307 318.277 742.568 310.273C742.007 304.117 738.788 298.764 733.51 295.195L405.356 73.3283C400.682 70.1675 394.863 68.6577 388.719 68.6577ZM361.255 681.759C354.812 681.759 348.699 680.167 343.779 676.846L15.6248 454.975C9.96914 451.152 6.5193 445.403 5.91121 438.795C5.13221 430.34 8.96748 421.304 16.4316 413.995L357.3 80.1949C371.02 66.7635 392.963 63.1243 406.214 72.0891L734.372 293.956C740.032 297.779 743.482 303.528 744.086 310.136C744.865 318.587 741.034 327.63 733.569 334.936L392.701 668.736C384.068 677.187 372.184 681.759 361.255 681.759Z" fill="url(#paint10_linear)"/>
<path d="M412.343 61.4535C402.756 61.4535 392.443 65.0023 384.351 71.8533L15.2952 384.449C7.56477 390.998 3.14126 399.512 3.16908 407.807C3.18895 414.187 5.92325 419.975 10.8675 424.108L318.175 681.061C330.039 690.983 351.339 689.199 365.647 677.077L734.706 364.481L735.207 365.061L734.706 364.481C742.436 357.932 746.856 349.418 746.832 341.124C746.813 334.744 744.074 328.955 739.134 324.822L431.826 67.8693C426.667 63.5556 419.719 61.4535 412.343 61.4535ZM337.65 688.983C329.908 688.983 322.607 686.771 317.174 682.226L9.86614 425.273C4.57211 420.85 1.64282 414.646 1.62295 407.814C1.59513 399.069 6.20946 390.132 14.2856 383.289L383.345 70.6967C398.206 58.1085 420.403 56.3161 432.823 66.7043L740.131 323.657C745.425 328.085 748.355 334.285 748.374 341.116C748.406 349.861 743.788 358.799 735.712 365.638L366.652 678.234C358.294 685.316 347.606 688.983 337.65 688.983Z" fill="url(#paint11_linear)"/>
<path d="M436.413 56.1516C427.82 56.1516 418.69 58.9282 411.059 64.4968L15.7999 352.811C7.54087 358.838 2.38601 367.168 1.65471 375.669C1.09033 382.258 3.30011 388.481 7.8827 393.183L291.324 684.32C302.261 695.556 323.62 695.607 338.938 684.434L734.201 396.116C742.46 390.097 747.615 381.764 748.346 373.262C748.907 366.674 746.693 360.454 742.115 355.748L458.674 64.6105C453.185 58.9753 445.069 56.1516 436.413 56.1516ZM313.601 694.313C304.515 694.313 295.978 691.336 290.191 685.395L6.74994 394.258C1.85336 389.226 -0.511462 382.579 0.0926611 375.54C0.859738 366.595 6.24514 357.858 14.8658 351.568L410.129 63.2499C426.055 51.6342 448.34 51.7595 459.806 63.5359L743.247 354.673C748.148 359.705 750.508 366.352 749.908 373.391C749.141 382.34 743.756 391.077 735.131 397.364L734.666 396.744L735.131 397.364L339.872 685.681C331.979 691.438 322.523 694.313 313.601 694.313Z" fill="url(#paint12_linear)"/>
<path d="M460.788 52.8339C453.24 52.8339 445.311 54.9515 438.324 59.3045L19.0944 320.367C10.3903 325.787 4.52791 333.838 3.00568 342.45C1.80936 349.23 3.45874 355.873 7.64388 361.16L264.289 685.285C274.185 697.787 295.441 699.732 311.677 689.626L730.906 428.563L731.332 429.23L730.906 428.563C739.606 423.144 745.469 415.097 746.991 406.477C748.183 399.701 746.538 393.058 742.356 387.771L485.708 63.642C480.072 56.5322 470.76 52.8339 460.788 52.8339ZM289.237 697.654C278.772 697.654 268.971 693.756 263.033 686.254L6.38807 362.128C1.92074 356.489 0.159964 349.406 1.43975 342.179C3.03352 333.128 9.15822 324.693 18.2399 319.038L437.469 57.9752C454.377 47.4497 476.579 49.5557 486.968 62.6773L743.613 386.803C748.076 392.442 749.837 399.528 748.561 406.748C746.963 415.803 740.838 424.238 731.757 429.897L312.527 690.956C305.29 695.465 297.078 697.654 289.237 697.654Z" fill="url(#paint13_linear)"/>
<path d="M485.338 51.655C478.868 51.655 472.139 53.2078 465.935 56.4627L25.2389 287.408C16.1851 292.153 9.65096 299.824 7.3219 308.447C5.44992 315.388 6.48332 322.443 10.2352 328.318L237.274 683.949C246.026 697.659 267.015 701.541 284.066 692.604L724.758 461.663C733.815 456.914 740.349 449.243 742.674 440.62C744.546 433.679 743.517 426.624 739.765 420.753L512.726 65.1177C507.162 56.4001 496.641 51.655 485.338 51.655ZM264.686 699C252.83 699 241.769 693.992 235.903 684.8L8.86415 329.169C4.86979 322.914 3.76883 315.412 5.76005 308.036C8.20437 298.985 15.0285 290.949 24.4838 285.996L465.171 55.0472C482.953 45.7335 504.905 49.8668 514.098 64.2668L741.137 419.898C745.127 426.149 746.228 433.659 744.237 441.028C741.796 450.086 734.972 458.118 725.516 463.075L725.139 462.369L725.516 463.075L284.825 694.016C278.39 697.388 271.407 699 264.686 699Z" fill="url(#paint14_linear)"/>
<path d="M509.916 51.8185C504.543 51.8185 498.995 52.9008 493.697 55.187L34.2809 253.297C24.9608 257.32 17.8147 264.517 14.6788 273.042C12.0795 280.101 12.4491 287.548 15.7161 294.014L210.478 679.379C217.986 694.226 238.542 700.081 256.304 692.418L715.72 494.305C725.04 490.285 732.186 483.093 735.322 474.564C737.917 467.505 737.547 460.057 734.276 453.591L539.518 68.2263C534.252 57.8105 522.559 51.8185 509.916 51.8185ZM240.104 697.403C226.845 697.403 214.56 691.081 209.008 680.101L14.2455 294.736C10.7757 287.869 10.3823 279.967 13.1327 272.489C16.4196 263.548 23.8876 256.01 33.6211 251.81L493.037 53.7007C511.586 45.7007 533.1 51.8929 540.989 67.5048L735.751 452.869C739.225 459.736 739.618 467.638 736.868 475.117C733.581 484.062 726.109 491.595 716.375 495.791L716.05 495.05L716.375 495.791L256.964 693.905C251.459 696.277 245.696 697.403 240.104 697.403Z" fill="url(#paint15_linear)"/>
<path d="M534.376 55.5831C530.091 55.5831 525.704 56.2809 521.399 57.7515L46.2327 220.489C36.7416 223.736 29.0469 230.371 25.124 238.685C21.7576 245.81 21.416 253.622 24.1504 260.681L184.132 673.72C190.292 689.634 210.24 697.465 228.598 691.175L703.769 528.446C713.256 525.191 720.954 518.559 724.877 510.246C728.24 503.12 728.586 495.308 725.851 488.25L565.87 75.2105C561.152 63.0301 548.35 55.5831 534.376 55.5831ZM215.641 694.991C200.983 694.991 187.542 687.14 182.57 674.308L22.5922 261.269C19.6909 253.791 20.0526 245.52 23.6097 237.991C27.7233 229.273 35.7678 222.324 45.6882 218.928L520.851 56.1985C540.048 49.6221 560.945 57.8889 567.428 74.6223L727.409 487.661C730.307 495.144 729.949 503.41 726.391 510.94C722.278 519.657 714.234 526.602 704.313 530.002L704.039 529.222L704.313 530.002L229.147 692.732C224.671 694.265 220.097 694.991 215.641 694.991Z" fill="url(#paint16_linear)"/>
<path d="M558.529 60.9358C555.333 60.9358 552.078 61.336 548.827 62.1674L61.093 187.167C51.5264 189.622 43.3589 195.611 38.681 203.607C34.5157 210.728 33.4067 218.861 35.5489 226.516L158.436 664.889C163.17 681.779 182.351 691.591 201.174 686.763L688.9 561.763C698.474 559.312 706.642 553.316 711.316 545.324C715.481 538.203 716.594 530.069 714.448 522.414L591.56 84.0416C587.645 70.0691 573.842 60.9358 558.529 60.9358ZM191.476 689.665C175.415 689.665 160.928 680.046 156.803 665.336L33.9155 226.959C31.646 218.873 32.8184 210.281 37.2142 202.771C42.1147 194.391 50.664 188.112 60.6678 185.547L548.401 60.5474C568.127 55.4926 588.214 65.8339 593.194 83.5947L716.081 521.971C718.351 530.058 717.178 538.65 712.787 546.159C707.886 554.54 699.333 560.818 689.329 563.383L689.114 562.571L689.329 563.383L201.599 688.383C198.213 689.25 194.811 689.665 191.476 689.665Z" fill="url(#paint17_linear)"/>
<path d="M582.193 68.5334C580.075 68.5334 577.924 68.7139 575.758 69.0864L78.8394 154.22C69.1456 155.882 60.8032 161.031 55.3462 168.718C50.3542 175.753 48.4305 184.157 49.9249 192.385L133.624 653.494C136.843 671.259 155.066 683.035 174.239 679.757L671.162 594.616L671.309 595.455L671.162 594.616C680.852 592.957 689.198 587.808 694.651 580.122C699.643 573.09 701.571 564.683 700.076 556.451L616.378 95.3452C613.52 79.5845 598.854 68.5334 582.193 68.5334ZM167.808 682C150.329 682 134.939 670.377 131.927 653.796L48.2278 192.686C46.6539 184.008 48.681 175.149 53.9392 167.745C59.6585 159.683 68.3945 154.286 78.5454 152.549L575.46 67.4117C595.575 63.9686 614.684 76.3649 618.071 95.0473L701.769 556.153C703.343 564.831 701.317 573.69 696.058 581.098C690.343 589.157 681.603 594.553 671.456 596.29L174.533 681.427C172.272 681.816 170.022 682 167.808 682Z" fill="url(#paint18_linear)"/>
<path d="M605.205 78.5281C604.128 78.5281 603.051 78.5792 601.966 78.6694L99.4192 122.054C90.0275 122.862 81.5062 127.124 75.4331 134.054C69.3641 140.971 66.4587 149.728 67.2536 158.7L109.904 639.681C110.699 648.654 115.095 656.779 122.292 662.552C129.494 668.332 138.64 671.073 148.031 670.261L650.578 626.881C669.957 625.206 684.389 608.763 682.748 590.23L640.097 109.25C639.302 100.277 634.903 92.1553 627.705 86.3789C621.33 81.2612 613.444 78.5281 605.205 78.5281ZM144.796 672.124C136.151 672.124 127.877 669.257 121.191 663.889C113.624 657.818 108.998 649.273 108.159 639.83L65.5128 158.854C64.6742 149.41 67.7266 140.203 74.1096 132.924C80.4847 125.657 89.4195 121.183 99.2682 120.336L601.815 76.9514C611.668 76.1044 621.25 78.9753 628.806 85.0419C636.377 91.1125 641.004 99.6575 641.842 109.101L684.488 590.081C686.213 609.563 671.07 626.842 650.729 628.599L148.182 671.979C147.046 672.077 145.917 672.124 144.796 672.124Z" fill="url(#paint19_linear)"/>
<path d="M123.071 90.7495C103.613 90.7495 87.774 106.365 87.774 125.559V623.438C87.774 642.631 103.613 658.247 123.071 658.247H627.929C647.391 658.247 663.226 642.631 663.226 623.438V125.559C663.226 106.365 647.391 90.7495 627.929 90.7495H123.071ZM627.929 660H123.071C102.63 660 86 643.596 86 623.438V125.559C86 105.4 102.63 89 123.071 89H627.929C648.374 89 665 105.4 665 125.559V623.438C665 643.596 648.374 660 627.929 660Z" fill="url(#paint20_linear)"/>
<g filter="url(#filter0_d)">
<path d="M448.048 225.96C448.512 225.96 448.88 226.104 449.152 226.392C449.424 226.664 449.56 227.032 449.56 227.496V241.584C449.56 242.048 449.416 242.424 449.128 242.712C448.856 243 448.496 243.144 448.048 243.144C447.584 243.144 447.216 243 446.944 242.712C446.672 242.424 446.536 242.048 446.536 241.584V235.656H437.872V241.584C437.872 242.048 437.728 242.424 437.44 242.712C437.168 243 436.8 243.144 436.336 243.144C435.888 243.144 435.52 243 435.232 242.712C434.96 242.424 434.824 242.048 434.824 241.584V227.496C434.824 227.032 434.96 226.664 435.232 226.392C435.504 226.104 435.872 225.96 436.336 225.96C436.8 225.96 437.168 226.104 437.44 226.392C437.728 226.664 437.872 227.032 437.872 227.496V233.16H446.536V227.496C446.536 227.032 446.672 226.664 446.944 226.392C447.216 226.104 447.584 225.96 448.048 225.96ZM458.743 243.12C458.263 243.12 457.879 242.984 457.591 242.712C457.319 242.424 457.183 242.048 457.183 241.584V228.624H452.815C451.855 228.624 451.375 228.2 451.375 227.352C451.375 226.504 451.855 226.08 452.815 226.08H464.647C465.607 226.08 466.087 226.504 466.087 227.352C466.087 228.2 465.607 228.624 464.647 228.624H460.279V241.584C460.279 242.048 460.135 242.424 459.847 242.712C459.575 242.984 459.207 243.12 458.743 243.12ZM482.942 225.96C483.39 225.96 483.75 226.104 484.022 226.392C484.294 226.664 484.43 227.032 484.43 227.496V241.704C484.43 242.152 484.302 242.504 484.046 242.76C483.79 243.016 483.454 243.144 483.038 243.144C482.622 243.144 482.294 243.016 482.054 242.76C481.814 242.504 481.694 242.152 481.694 241.704V231.816L477.614 239.544C477.422 239.896 477.214 240.16 476.99 240.336C476.766 240.496 476.502 240.576 476.198 240.576C475.894 240.576 475.63 240.496 475.406 240.336C475.182 240.176 474.974 239.912 474.782 239.544L470.678 231.936V241.704C470.678 242.136 470.55 242.488 470.294 242.76C470.054 243.016 469.726 243.144 469.31 243.144C468.894 243.144 468.566 243.016 468.326 242.76C468.086 242.504 467.966 242.152 467.966 241.704V227.496C467.966 227.032 468.094 226.664 468.35 226.392C468.622 226.104 468.982 225.96 469.43 225.96C470.054 225.96 470.542 226.304 470.894 226.992L476.222 237.144L481.526 226.992C481.878 226.304 482.35 225.96 482.942 225.96ZM489.561 243C489.097 243 488.737 242.872 488.481 242.616C488.225 242.36 488.097 242.008 488.097 241.56V227.496C488.097 227.032 488.233 226.664 488.505 226.392C488.793 226.104 489.169 225.96 489.633 225.96C490.113 225.96 490.489 226.104 490.761 226.392C491.049 226.664 491.193 227.032 491.193 227.496V240.456H497.937C498.897 240.456 499.377 240.88 499.377 241.728C499.377 242.576 498.897 243 497.937 243H489.561ZM507.674 232.176C508.73 232.176 509.658 232.408 510.458 232.872C511.274 233.32 511.906 233.952 512.354 234.768C512.802 235.584 513.026 236.52 513.026 237.576C513.026 238.68 512.77 239.656 512.258 240.504C511.762 241.352 511.05 242.016 510.122 242.496C509.21 242.96 508.154 243.192 506.954 243.192C505.962 243.192 504.986 243.032 504.026 242.712C503.082 242.376 502.274 241.928 501.602 241.368C501.234 241.048 501.05 240.672 501.05 240.24C501.05 239.888 501.146 239.592 501.338 239.352C501.546 239.096 501.786 238.968 502.058 238.968C502.218 238.968 502.37 239 502.514 239.064C502.658 239.112 502.826 239.2 503.018 239.328C503.658 239.776 504.282 240.12 504.89 240.36C505.498 240.6 506.146 240.72 506.834 240.72C507.89 240.72 508.698 240.456 509.258 239.928C509.818 239.4 510.098 238.648 510.098 237.672C510.098 236.728 509.81 235.984 509.234 235.44C508.674 234.88 507.898 234.6 506.906 234.6C506.282 234.6 505.722 234.688 505.226 234.864C504.746 235.04 504.25 235.336 503.738 235.752C503.434 235.96 503.122 236.064 502.802 236.064C502.482 236.064 502.21 235.968 501.986 235.776C501.762 235.584 501.65 235.328 501.65 235.008V227.52C501.65 227.072 501.778 226.72 502.034 226.464C502.29 226.208 502.65 226.08 503.114 226.08H511.106C512.066 226.08 512.546 226.48 512.546 227.28C512.546 228.08 512.066 228.48 511.106 228.48H504.674V233.04C505.49 232.464 506.49 232.176 507.674 232.176Z" fill="#F1F1F1"/>
</g>
<g filter="url(#filter1_d)">
<path d="M260.384 282.216C258.752 282.216 257.32 281.864 256.088 281.16C254.872 280.456 253.936 279.448 253.28 278.136C252.624 276.824 252.296 275.288 252.296 273.528C252.296 271.768 252.624 270.24 253.28 268.944C253.936 267.632 254.872 266.624 256.088 265.92C257.32 265.216 258.752 264.864 260.384 264.864C261.44 264.864 262.432 265.024 263.36 265.344C264.288 265.648 265.112 266.096 265.832 266.688C266.04 266.848 266.184 267.016 266.264 267.192C266.344 267.368 266.384 267.584 266.384 267.84C266.384 268.192 266.288 268.488 266.096 268.728C265.904 268.968 265.672 269.088 265.4 269.088C265.08 269.088 264.752 268.976 264.416 268.752C263.728 268.24 263.088 267.888 262.496 267.696C261.904 267.488 261.248 267.384 260.528 267.384C258.864 267.384 257.6 267.904 256.736 268.944C255.888 269.984 255.464 271.512 255.464 273.528C255.464 275.56 255.888 277.096 256.736 278.136C257.6 279.176 258.864 279.696 260.528 279.696C261.216 279.696 261.848 279.592 262.424 279.384C263.016 279.176 263.68 278.824 264.416 278.328C264.576 278.232 264.736 278.152 264.896 278.088C265.056 278.024 265.224 277.992 265.4 277.992C265.672 277.992 265.904 278.112 266.096 278.352C266.288 278.592 266.384 278.888 266.384 279.24C266.384 279.48 266.344 279.696 266.264 279.888C266.184 280.064 266.04 280.232 265.832 280.392C265.112 280.984 264.288 281.44 263.36 281.76C262.432 282.064 261.44 282.216 260.384 282.216ZM274.641 282.216C273.409 282.216 272.241 282.056 271.137 281.736C270.049 281.4 269.161 280.952 268.473 280.392C268.105 280.12 267.921 279.736 267.921 279.24C267.921 278.904 268.017 278.616 268.209 278.376C268.417 278.12 268.657 277.992 268.929 277.992C269.217 277.992 269.545 278.104 269.913 278.328C270.601 278.824 271.321 279.184 272.073 279.408C272.825 279.632 273.657 279.744 274.569 279.744C275.737 279.744 276.633 279.544 277.257 279.144C277.881 278.728 278.193 278.128 278.193 277.344C278.193 276.736 277.897 276.272 277.305 275.952C276.729 275.616 275.761 275.296 274.401 274.992C272.993 274.688 271.849 274.336 270.969 273.936C270.089 273.536 269.425 273.024 268.977 272.4C268.529 271.776 268.305 270.984 268.305 270.024C268.305 269.032 268.585 268.144 269.145 267.36C269.705 266.576 270.481 265.968 271.473 265.536C272.481 265.088 273.609 264.864 274.857 264.864C277.145 264.864 279.009 265.472 280.449 266.688C280.657 266.864 280.801 267.04 280.881 267.216C280.977 267.376 281.025 267.584 281.025 267.84C281.025 268.176 280.921 268.472 280.713 268.728C280.521 268.968 280.289 269.088 280.017 269.088C279.857 269.088 279.705 269.064 279.561 269.016C279.433 268.968 279.257 268.88 279.033 268.752C278.377 268.272 277.737 267.92 277.113 267.696C276.505 267.456 275.753 267.336 274.857 267.336C273.769 267.336 272.905 267.56 272.265 268.008C271.641 268.44 271.329 269.048 271.329 269.832C271.329 270.488 271.609 270.992 272.169 271.344C272.729 271.696 273.681 272.024 275.025 272.328C276.449 272.648 277.601 273.008 278.481 273.408C279.377 273.792 280.057 274.288 280.521 274.896C281.001 275.504 281.241 276.264 281.241 277.176C281.241 278.168 280.961 279.048 280.401 279.816C279.857 280.568 279.081 281.16 278.073 281.592C277.081 282.008 275.937 282.216 274.641 282.216ZM289.946 282.216C288.714 282.216 287.546 282.056 286.442 281.736C285.354 281.4 284.466 280.952 283.778 280.392C283.41 280.12 283.226 279.736 283.226 279.24C283.226 278.904 283.322 278.616 283.514 278.376C283.722 278.12 283.962 277.992 284.234 277.992C284.522 277.992 284.85 278.104 285.218 278.328C285.906 278.824 286.626 279.184 287.378 279.408C288.13 279.632 288.962 279.744 289.874 279.744C291.042 279.744 291.938 279.544 292.562 279.144C293.186 278.728 293.498 278.128 293.498 277.344C293.498 276.736 293.202 276.272 292.61 275.952C292.034 275.616 291.066 275.296 289.706 274.992C288.298 274.688 287.154 274.336 286.274 273.936C285.394 273.536 284.73 273.024 284.282 272.4C283.834 271.776 283.61 270.984 283.61 270.024C283.61 269.032 283.89 268.144 284.45 267.36C285.01 266.576 285.786 265.968 286.778 265.536C287.786 265.088 288.914 264.864 290.162 264.864C292.45 264.864 294.314 265.472 295.754 266.688C295.962 266.864 296.106 267.04 296.186 267.216C296.282 267.376 296.33 267.584 296.33 267.84C296.33 268.176 296.226 268.472 296.018 268.728C295.826 268.968 295.594 269.088 295.322 269.088C295.162 269.088 295.01 269.064 294.866 269.016C294.738 268.968 294.562 268.88 294.338 268.752C293.682 268.272 293.042 267.92 292.418 267.696C291.81 267.456 291.058 267.336 290.162 267.336C289.074 267.336 288.21 267.56 287.57 268.008C286.946 268.44 286.634 269.048 286.634 269.832C286.634 270.488 286.914 270.992 287.474 271.344C288.034 271.696 288.986 272.024 290.33 272.328C291.754 272.648 292.906 273.008 293.786 273.408C294.682 273.792 295.362 274.288 295.826 274.896C296.306 275.504 296.546 276.264 296.546 277.176C296.546 278.168 296.266 279.048 295.706 279.816C295.162 280.568 294.386 281.16 293.378 281.592C292.386 282.008 291.242 282.216 289.946 282.216ZM307.362 273.312C308.37 273.568 309.138 274.056 309.666 274.776C310.21 275.48 310.482 276.36 310.482 277.416C310.482 278.872 309.946 280.032 308.874 280.896C307.802 281.76 306.354 282.192 304.53 282.192C303.49 282.192 302.49 282.032 301.53 281.712C300.57 281.392 299.754 280.944 299.082 280.368C298.714 280.048 298.53 279.672 298.53 279.24C298.53 278.888 298.626 278.592 298.818 278.352C299.026 278.096 299.266 277.968 299.538 277.968C299.698 277.968 299.842 278 299.97 278.064C300.098 278.112 300.274 278.2 300.498 278.328C301.17 278.776 301.81 279.12 302.418 279.36C303.026 279.6 303.69 279.72 304.41 279.72C305.466 279.72 306.25 279.512 306.762 279.096C307.274 278.664 307.53 278.016 307.53 277.152C307.53 276.304 307.258 275.68 306.714 275.28C306.186 274.864 305.362 274.656 304.242 274.656H302.874C302.506 274.656 302.218 274.536 302.01 274.296C301.818 274.04 301.722 273.752 301.722 273.432C301.722 273.096 301.818 272.808 302.01 272.568C302.218 272.328 302.506 272.208 302.874 272.208H303.834C306.026 272.208 307.122 271.384 307.122 269.736C307.122 268.968 306.89 268.376 306.426 267.96C305.962 267.544 305.322 267.336 304.506 267.336C303.338 267.336 302.09 267.8 300.762 268.728C300.538 268.856 300.362 268.952 300.234 269.016C300.106 269.064 299.962 269.088 299.802 269.088C299.53 269.088 299.29 268.968 299.082 268.728C298.89 268.472 298.794 268.168 298.794 267.816C298.794 267.576 298.834 267.376 298.914 267.216C299.01 267.04 299.154 266.864 299.346 266.688C300.018 266.128 300.818 265.688 301.746 265.368C302.69 265.032 303.65 264.864 304.626 264.864C306.29 264.864 307.61 265.272 308.586 266.088C309.578 266.904 310.074 267.992 310.074 269.352C310.058 270.28 309.81 271.096 309.33 271.8C308.866 272.488 308.21 272.992 307.362 273.312Z" fill="#F1F1F1"/>
</g>
<g filter="url(#filter2_d)">
<path d="M214.512 428.144C213.28 428.192 212.664 427.768 212.664 426.872C212.664 426.488 212.768 426.2 212.976 426.008C213.168 425.8 213.48 425.68 213.912 425.648L214.68 425.6C215.336 425.568 215.832 425.36 216.168 424.976C216.504 424.592 216.672 424.008 216.672 423.224V412.496C216.672 412.032 216.808 411.664 217.08 411.392C217.368 411.104 217.744 410.96 218.208 410.96C218.688 410.96 219.064 411.104 219.336 411.392C219.624 411.664 219.768 412.032 219.768 412.496V423.224C219.768 426.248 218.272 427.872 215.28 428.096L214.512 428.144ZM228.25 415.976C229.882 415.976 231.09 416.384 231.874 417.2C232.674 418 233.074 419.224 233.074 420.872V426.728C233.074 427.16 232.946 427.504 232.69 427.76C232.434 428 232.082 428.12 231.634 428.12C231.218 428.12 230.874 427.992 230.602 427.736C230.346 427.48 230.218 427.144 230.218 426.728V426.2C229.946 426.824 229.514 427.312 228.922 427.664C228.346 428.016 227.674 428.192 226.906 428.192C226.122 428.192 225.41 428.032 224.77 427.712C224.13 427.392 223.626 426.952 223.258 426.392C222.89 425.832 222.706 425.208 222.706 424.52C222.706 423.656 222.922 422.976 223.354 422.48C223.802 421.984 224.522 421.624 225.514 421.4C226.506 421.176 227.874 421.064 229.618 421.064H230.218V420.512C230.218 419.728 230.05 419.16 229.714 418.808C229.378 418.44 228.834 418.256 228.082 418.256C227.618 418.256 227.146 418.328 226.666 418.472C226.186 418.6 225.618 418.792 224.962 419.048C224.546 419.256 224.242 419.36 224.05 419.36C223.762 419.36 223.522 419.256 223.33 419.048C223.154 418.84 223.066 418.568 223.066 418.232C223.066 417.96 223.13 417.728 223.258 417.536C223.402 417.328 223.634 417.136 223.954 416.96C224.514 416.656 225.178 416.416 225.946 416.24C226.73 416.064 227.498 415.976 228.25 415.976ZM227.506 426.032C228.306 426.032 228.954 425.768 229.45 425.24C229.962 424.696 230.218 424 230.218 423.152V422.648H229.786C228.714 422.648 227.882 422.696 227.29 422.792C226.698 422.888 226.274 423.056 226.018 423.296C225.762 423.536 225.634 423.864 225.634 424.28C225.634 424.792 225.81 425.216 226.162 425.552C226.53 425.872 226.978 426.032 227.506 426.032ZM244.307 416.888C244.435 416.6 244.603 416.384 244.811 416.24C245.035 416.096 245.275 416.024 245.531 416.024C245.899 416.024 246.227 416.152 246.515 416.408C246.819 416.648 246.971 416.952 246.971 417.32C246.971 417.512 246.923 417.704 246.827 417.896L242.387 427.184C242.243 427.488 242.035 427.72 241.763 427.88C241.507 428.04 241.219 428.12 240.898 428.12C240.595 428.12 240.299 428.04 240.011 427.88C239.739 427.72 239.531 427.488 239.387 427.184L234.923 417.896C234.843 417.736 234.803 417.552 234.803 417.344C234.803 416.976 234.955 416.664 235.259 416.408C235.579 416.152 235.939 416.024 236.339 416.024C236.915 416.024 237.339 416.304 237.611 416.864L240.971 424.28L244.307 416.888ZM253.679 415.976C255.311 415.976 256.519 416.384 257.303 417.2C258.103 418 258.503 419.224 258.503 420.872V426.728C258.503 427.16 258.375 427.504 258.119 427.76C257.863 428 257.511 428.12 257.063 428.12C256.647 428.12 256.303 427.992 256.031 427.736C255.775 427.48 255.647 427.144 255.647 426.728V426.2C255.375 426.824 254.943 427.312 254.351 427.664C253.775 428.016 253.103 428.192 252.335 428.192C251.551 428.192 250.839 428.032 250.199 427.712C249.559 427.392 249.055 426.952 248.687 426.392C248.319 425.832 248.135 425.208 248.135 424.52C248.135 423.656 248.351 422.976 248.783 422.48C249.231 421.984 249.951 421.624 250.943 421.4C251.935 421.176 253.303 421.064 255.047 421.064H255.647V420.512C255.647 419.728 255.479 419.16 255.143 418.808C254.807 418.44 254.263 418.256 253.511 418.256C253.047 418.256 252.575 418.328 252.095 418.472C251.615 418.6 251.047 418.792 250.391 419.048C249.975 419.256 249.671 419.36 249.479 419.36C249.191 419.36 248.951 419.256 248.759 419.048C248.583 418.84 248.495 418.568 248.495 418.232C248.495 417.96 248.559 417.728 248.687 417.536C248.831 417.328 249.063 417.136 249.383 416.96C249.943 416.656 250.607 416.416 251.375 416.24C252.159 416.064 252.927 415.976 253.679 415.976ZM252.935 426.032C253.735 426.032 254.383 425.768 254.879 425.24C255.391 424.696 255.647 424 255.647 423.152V422.648H255.215C254.143 422.648 253.311 422.696 252.719 422.792C252.127 422.888 251.703 423.056 251.447 423.296C251.191 423.536 251.063 423.864 251.063 424.28C251.063 424.792 251.239 425.216 251.591 425.552C251.959 425.872 252.407 426.032 252.935 426.032ZM267.672 428.216C266.44 428.216 265.272 428.056 264.168 427.736C263.08 427.4 262.192 426.952 261.504 426.392C261.136 426.12 260.952 425.736 260.952 425.24C260.952 424.904 261.048 424.616 261.24 424.376C261.448 424.12 261.688 423.992 261.96 423.992C262.248 423.992 262.576 424.104 262.944 424.328C263.632 424.824 264.352 425.184 265.104 425.408C265.856 425.632 266.688 425.744 267.6 425.744C268.768 425.744 269.664 425.544 270.288 425.144C270.912 424.728 271.224 424.128 271.224 423.344C271.224 422.736 270.928 422.272 270.336 421.952C269.76 421.616 268.792 421.296 267.432 420.992C266.024 420.688 264.88 420.336 264 419.936C263.12 419.536 262.456 419.024 262.008 418.4C261.56 417.776 261.336 416.984 261.336 416.024C261.336 415.032 261.616 414.144 262.176 413.36C262.736 412.576 263.512 411.968 264.504 411.536C265.512 411.088 266.64 410.864 267.888 410.864C270.176 410.864 272.04 411.472 273.48 412.688C273.688 412.864 273.832 413.04 273.912 413.216C274.008 413.376 274.056 413.584 274.056 413.84C274.056 414.176 273.952 414.472 273.744 414.728C273.552 414.968 273.32 415.088 273.048 415.088C272.888 415.088 272.736 415.064 272.592 415.016C272.464 414.968 272.288 414.88 272.064 414.752C271.408 414.272 270.768 413.92 270.144 413.696C269.536 413.456 268.784 413.336 267.888 413.336C266.8 413.336 265.936 413.56 265.296 414.008C264.672 414.44 264.36 415.048 264.36 415.832C264.36 416.488 264.64 416.992 265.2 417.344C265.76 417.696 266.712 418.024 268.056 418.328C269.48 418.648 270.632 419.008 271.512 419.408C272.408 419.792 273.088 420.288 273.552 420.896C274.032 421.504 274.272 422.264 274.272 423.176C274.272 424.168 273.992 425.048 273.432 425.816C272.888 426.568 272.112 427.16 271.104 427.592C270.112 428.008 268.968 428.216 267.672 428.216ZM282.065 428.192C280.897 428.192 279.865 427.944 278.969 427.448C278.089 426.952 277.409 426.248 276.929 425.336C276.449 424.424 276.209 423.36 276.209 422.144C276.209 420.928 276.457 419.856 276.953 418.928C277.465 417.984 278.177 417.256 279.089 416.744C280.001 416.232 281.049 415.976 282.233 415.976C282.857 415.976 283.481 416.064 284.105 416.24C284.745 416.416 285.305 416.656 285.785 416.96C286.297 417.296 286.553 417.72 286.553 418.232C286.553 418.584 286.465 418.872 286.289 419.096C286.129 419.304 285.913 419.408 285.641 419.408C285.465 419.408 285.281 419.368 285.089 419.288C284.897 419.208 284.705 419.112 284.513 419C284.161 418.792 283.825 418.632 283.505 418.52C283.185 418.392 282.817 418.328 282.401 418.328C281.409 418.328 280.641 418.656 280.097 419.312C279.569 419.952 279.305 420.88 279.305 422.096C279.305 423.296 279.569 424.224 280.097 424.88C280.641 425.52 281.409 425.84 282.401 425.84C282.801 425.84 283.153 425.784 283.457 425.672C283.777 425.544 284.129 425.376 284.513 425.168C284.753 425.024 284.961 424.92 285.137 424.856C285.313 424.776 285.489 424.736 285.665 424.736C285.921 424.736 286.137 424.848 286.313 425.072C286.489 425.296 286.577 425.576 286.577 425.912C286.577 426.184 286.513 426.424 286.385 426.632C286.273 426.824 286.081 427 285.809 427.16C285.313 427.48 284.737 427.736 284.081 427.928C283.425 428.104 282.753 428.192 282.065 428.192ZM295.128 416.024C295.544 415.992 295.872 416.08 296.112 416.288C296.352 416.496 296.472 416.808 296.472 417.224C296.472 417.656 296.368 417.976 296.16 418.184C295.952 418.392 295.576 418.528 295.032 418.592L294.312 418.664C293.368 418.76 292.672 419.08 292.224 419.624C291.792 420.168 291.576 420.848 291.576 421.664V426.704C291.576 427.168 291.432 427.528 291.144 427.784C290.856 428.024 290.496 428.144 290.064 428.144C289.632 428.144 289.272 428.024 288.984 427.784C288.712 427.528 288.576 427.168 288.576 426.704V417.416C288.576 416.968 288.712 416.624 288.984 416.384C289.272 416.144 289.624 416.024 290.04 416.024C290.456 416.024 290.792 416.144 291.048 416.384C291.304 416.608 291.432 416.936 291.432 417.368V418.328C291.736 417.624 292.184 417.08 292.776 416.696C293.384 416.312 294.056 416.096 294.792 416.048L295.128 416.024ZM299.251 428.144C298.819 428.144 298.459 428.024 298.171 427.784C297.899 427.528 297.763 427.168 297.763 426.704V417.44C297.763 416.976 297.899 416.624 298.171 416.384C298.459 416.144 298.819 416.024 299.251 416.024C299.683 416.024 300.043 416.144 300.331 416.384C300.619 416.624 300.763 416.976 300.763 417.44V426.704C300.763 427.168 300.619 427.528 300.331 427.784C300.043 428.024 299.683 428.144 299.251 428.144ZM299.251 413.888C298.707 413.888 298.275 413.744 297.955 413.456C297.635 413.152 297.475 412.76 297.475 412.28C297.475 411.8 297.635 411.416 297.955 411.128C298.275 410.84 298.707 410.696 299.251 410.696C299.779 410.696 300.203 410.84 300.523 411.128C300.859 411.416 301.027 411.8 301.027 412.28C301.027 412.76 300.867 413.152 300.547 413.456C300.227 413.744 299.795 413.888 299.251 413.888ZM310.601 415.976C311.609 415.976 312.505 416.232 313.289 416.744C314.089 417.256 314.705 417.984 315.137 418.928C315.585 419.856 315.809 420.928 315.809 422.144C315.809 423.36 315.585 424.424 315.137 425.336C314.705 426.248 314.097 426.952 313.313 427.448C312.529 427.944 311.625 428.192 310.601 428.192C309.769 428.192 309.025 428.016 308.369 427.664C307.713 427.312 307.209 426.824 306.857 426.2V431.096C306.857 431.512 306.721 431.84 306.449 432.08C306.177 432.32 305.817 432.44 305.369 432.44C304.921 432.44 304.553 432.312 304.265 432.056C303.993 431.8 303.857 431.464 303.857 431.048V417.44C303.857 417.008 303.985 416.664 304.241 416.408C304.513 416.152 304.873 416.024 305.321 416.024C305.769 416.024 306.129 416.152 306.401 416.408C306.673 416.664 306.809 417.008 306.809 417.44V418.04C307.161 417.384 307.665 416.88 308.321 416.528C308.993 416.16 309.753 415.976 310.601 415.976ZM309.809 425.864C310.753 425.864 311.489 425.544 312.017 424.904C312.545 424.248 312.809 423.328 312.809 422.144C312.809 420.928 312.545 419.984 312.017 419.312C311.489 418.64 310.753 418.304 309.809 418.304C308.849 418.304 308.105 418.632 307.577 419.288C307.065 419.944 306.809 420.88 306.809 422.096C306.809 423.296 307.065 424.224 307.577 424.88C308.105 425.536 308.849 425.864 309.809 425.864ZM324.297 425.912C325.097 425.96 325.497 426.32 325.497 426.992C325.497 427.376 325.337 427.672 325.017 427.88C324.713 428.072 324.273 428.152 323.697 428.12L323.049 428.072C320.361 427.88 319.017 426.44 319.017 423.752V418.52H317.817C317.385 418.52 317.049 418.424 316.809 418.232C316.585 418.04 316.473 417.76 316.473 417.392C316.473 417.024 316.585 416.744 316.809 416.552C317.049 416.36 317.385 416.264 317.817 416.264H319.017V414.056C319.017 413.624 319.153 413.28 319.425 413.024C319.697 412.768 320.065 412.64 320.529 412.64C320.977 412.64 321.337 412.768 321.609 413.024C321.881 413.28 322.017 413.624 322.017 414.056V416.264H324.057C324.489 416.264 324.817 416.36 325.041 416.552C325.281 416.744 325.401 417.024 325.401 417.392C325.401 417.76 325.281 418.04 325.041 418.232C324.817 418.424 324.489 418.52 324.057 418.52H322.017V423.968C322.017 425.152 322.561 425.784 323.649 425.864L324.297 425.912Z" fill="#F1F1F1"/>
</g>
<g filter="url(#filter3_d)">
<path d="M383.512 483.144C382.28 483.192 381.664 482.768 381.664 481.872C381.664 481.488 381.768 481.2 381.976 481.008C382.168 480.8 382.48 480.68 382.912 480.648L383.68 480.6C384.336 480.568 384.832 480.36 385.168 479.976C385.504 479.592 385.672 479.008 385.672 478.224V467.496C385.672 467.032 385.808 466.664 386.08 466.392C386.368 466.104 386.744 465.96 387.208 465.96C387.688 465.96 388.064 466.104 388.336 466.392C388.624 466.664 388.768 467.032 388.768 467.496V478.224C388.768 481.248 387.272 482.872 384.28 483.096L383.512 483.144ZM402.002 471.024C402.45 471.024 402.81 471.152 403.082 471.408C403.354 471.664 403.49 472.008 403.49 472.44V486.048C403.49 486.464 403.346 486.8 403.058 487.056C402.77 487.312 402.402 487.44 401.954 487.44C401.506 487.44 401.146 487.312 400.874 487.056C400.618 486.816 400.49 486.496 400.49 486.096V481.152C400.138 481.792 399.626 482.296 398.954 482.664C398.298 483.016 397.554 483.192 396.722 483.192C395.698 483.192 394.794 482.944 394.01 482.448C393.226 481.952 392.61 481.248 392.162 480.336C391.73 479.424 391.514 478.36 391.514 477.144C391.514 475.928 391.73 474.856 392.162 473.928C392.61 472.984 393.226 472.256 394.01 471.744C394.81 471.232 395.714 470.976 396.722 470.976C397.57 470.976 398.322 471.16 398.978 471.528C399.65 471.88 400.162 472.384 400.514 473.04V472.44C400.514 472.008 400.65 471.664 400.922 471.408C401.194 471.152 401.554 471.024 402.002 471.024ZM397.538 480.864C398.482 480.864 399.21 480.536 399.722 479.88C400.25 479.224 400.514 478.296 400.514 477.096C400.514 475.88 400.25 474.944 399.722 474.288C399.21 473.632 398.474 473.304 397.514 473.304C396.57 473.304 395.834 473.64 395.306 474.312C394.778 474.984 394.514 475.928 394.514 477.144C394.514 478.328 394.778 479.248 395.306 479.904C395.834 480.544 396.578 480.864 397.538 480.864ZM415.84 471.024C416.304 471.024 416.672 471.152 416.944 471.408C417.216 471.664 417.352 472.008 417.352 472.44V481.752C417.352 482.168 417.208 482.504 416.92 482.76C416.648 483.016 416.288 483.144 415.84 483.144C415.408 483.144 415.064 483.024 414.808 482.784C414.552 482.544 414.424 482.216 414.424 481.8V481.2C414.056 481.84 413.56 482.336 412.936 482.688C412.312 483.024 411.608 483.192 410.824 483.192C407.944 483.192 406.504 481.576 406.504 478.344V472.44C406.504 472.008 406.64 471.664 406.912 471.408C407.184 471.152 407.544 471.024 407.992 471.024C408.456 471.024 408.824 471.152 409.096 471.408C409.368 471.664 409.504 472.008 409.504 472.44V478.368C409.504 479.2 409.672 479.816 410.008 480.216C410.344 480.616 410.872 480.816 411.592 480.816C412.424 480.816 413.088 480.544 413.584 480C414.096 479.44 414.352 478.704 414.352 477.792V472.44C414.352 472.008 414.488 471.664 414.76 471.408C415.032 471.152 415.392 471.024 415.84 471.024ZM429.762 479.784C430.034 479.784 430.25 479.888 430.41 480.096C430.586 480.304 430.674 480.584 430.674 480.936C430.674 481.432 430.378 481.848 429.786 482.184C429.242 482.488 428.626 482.736 427.938 482.928C427.25 483.104 426.594 483.192 425.97 483.192C424.082 483.192 422.586 482.648 421.482 481.56C420.378 480.472 419.826 478.984 419.826 477.096C419.826 475.896 420.066 474.832 420.546 473.904C421.026 472.976 421.698 472.256 422.562 471.744C423.442 471.232 424.434 470.976 425.538 470.976C426.594 470.976 427.514 471.208 428.298 471.672C429.082 472.136 429.69 472.792 430.122 473.64C430.554 474.488 430.77 475.488 430.77 476.64C430.77 477.328 430.466 477.672 429.858 477.672H422.778C422.874 478.776 423.186 479.592 423.714 480.12C424.242 480.632 425.01 480.888 426.018 480.888C426.53 480.888 426.978 480.824 427.362 480.696C427.762 480.568 428.21 480.392 428.706 480.168C429.186 479.912 429.538 479.784 429.762 479.784ZM425.61 473.088C424.794 473.088 424.138 473.344 423.642 473.856C423.162 474.368 422.874 475.104 422.778 476.064H428.202C428.17 475.088 427.93 474.352 427.482 473.856C427.034 473.344 426.41 473.088 425.61 473.088ZM439.776 471.024C440.192 470.992 440.52 471.08 440.76 471.288C441 471.496 441.12 471.808 441.12 472.224C441.12 472.656 441.016 472.976 440.808 473.184C440.6 473.392 440.224 473.528 439.68 473.592L438.96 473.664C438.016 473.76 437.32 474.08 436.872 474.624C436.44 475.168 436.224 475.848 436.224 476.664V481.704C436.224 482.168 436.08 482.528 435.792 482.784C435.504 483.024 435.144 483.144 434.712 483.144C434.28 483.144 433.92 483.024 433.632 482.784C433.36 482.528 433.224 482.168 433.224 481.704V472.416C433.224 471.968 433.36 471.624 433.632 471.384C433.92 471.144 434.272 471.024 434.688 471.024C435.104 471.024 435.44 471.144 435.696 471.384C435.952 471.608 436.08 471.936 436.08 472.368V473.328C436.384 472.624 436.832 472.08 437.424 471.696C438.032 471.312 438.704 471.096 439.44 471.048L439.776 471.024ZM451.322 471.888C451.45 471.6 451.618 471.392 451.826 471.264C452.05 471.12 452.29 471.048 452.546 471.048C452.914 471.048 453.242 471.176 453.53 471.432C453.834 471.672 453.986 471.976 453.986 472.344C453.986 472.52 453.938 472.704 453.842 472.896L447.29 486.624C447.018 487.168 446.594 487.44 446.018 487.44C445.65 487.44 445.322 487.32 445.034 487.08C444.762 486.856 444.626 486.568 444.626 486.216C444.626 486.04 444.674 485.84 444.77 485.616L446.402 482.184L441.938 472.896C441.858 472.736 441.818 472.552 441.818 472.344C441.818 471.976 441.97 471.664 442.274 471.408C442.594 471.152 442.954 471.024 443.354 471.024C443.626 471.024 443.874 471.096 444.098 471.24C444.322 471.368 444.498 471.576 444.626 471.864L447.986 479.28L451.322 471.888Z" fill="#F1F1F1"/>
</g>
<g filter="url(#filter4_d)">
<path d="M478.36 397.056C478.552 397.344 478.648 397.624 478.648 397.896C478.648 398.264 478.496 398.568 478.192 398.808C477.904 399.048 477.56 399.168 477.16 399.168C476.904 399.168 476.656 399.112 476.416 399C476.192 398.872 476 398.688 475.84 398.448L472.648 393.6C472.328 393.088 471.984 392.728 471.616 392.52C471.264 392.312 470.8 392.208 470.224 392.208H467.872V397.584C467.872 398.064 467.736 398.448 467.464 398.736C467.192 399.008 466.824 399.144 466.36 399.144C465.896 399.144 465.52 399.008 465.232 398.736C464.96 398.448 464.824 398.064 464.824 397.584V383.544C464.824 383.08 464.952 382.72 465.208 382.464C465.48 382.208 465.848 382.08 466.312 382.08H472.312C474.232 382.08 475.688 382.512 476.68 383.376C477.688 384.224 478.192 385.456 478.192 387.072C478.192 388.384 477.816 389.464 477.064 390.312C476.328 391.144 475.28 391.68 473.92 391.92C474.384 392.032 474.792 392.232 475.144 392.52C475.496 392.808 475.84 393.208 476.176 393.72L478.36 397.056ZM471.88 389.832C473.048 389.832 473.904 389.616 474.448 389.184C474.992 388.736 475.264 388.056 475.264 387.144C475.264 386.216 474.992 385.544 474.448 385.128C473.904 384.696 473.048 384.48 471.88 384.48H467.848V389.832H471.88ZM490.536 395.784C490.808 395.784 491.024 395.888 491.184 396.096C491.36 396.304 491.448 396.584 491.448 396.936C491.448 397.432 491.152 397.848 490.56 398.184C490.016 398.488 489.4 398.736 488.712 398.928C488.024 399.104 487.368 399.192 486.743 399.192C484.856 399.192 483.36 398.648 482.256 397.56C481.152 396.472 480.6 394.984 480.6 393.096C480.6 391.896 480.84 390.832 481.32 389.904C481.8 388.976 482.472 388.256 483.336 387.744C484.216 387.232 485.208 386.976 486.312 386.976C487.368 386.976 488.288 387.208 489.072 387.672C489.856 388.136 490.464 388.792 490.896 389.64C491.328 390.488 491.544 391.488 491.544 392.64C491.544 393.328 491.24 393.672 490.632 393.672H483.552C483.648 394.776 483.96 395.592 484.488 396.12C485.016 396.632 485.784 396.888 486.792 396.888C487.304 396.888 487.752 396.824 488.136 396.696C488.536 396.568 488.984 396.392 489.48 396.168C489.96 395.912 490.312 395.784 490.536 395.784ZM486.384 389.088C485.568 389.088 484.912 389.344 484.416 389.856C483.936 390.368 483.648 391.104 483.552 392.064H488.976C488.944 391.088 488.704 390.352 488.256 389.856C487.808 389.344 487.184 389.088 486.384 389.088ZM499.086 386.976C500.718 386.976 501.926 387.384 502.71 388.2C503.51 389 503.91 390.224 503.91 391.872V397.728C503.91 398.16 503.782 398.504 503.526 398.76C503.27 399 502.918 399.12 502.47 399.12C502.054 399.12 501.71 398.992 501.438 398.736C501.182 398.48 501.054 398.144 501.054 397.728V397.2C500.782 397.824 500.35 398.312 499.758 398.664C499.182 399.016 498.51 399.192 497.742 399.192C496.958 399.192 496.246 399.032 495.605 398.712C494.966 398.392 494.462 397.952 494.094 397.392C493.726 396.832 493.542 396.208 493.542 395.52C493.542 394.656 493.758 393.976 494.19 393.48C494.638 392.984 495.358 392.624 496.35 392.4C497.342 392.176 498.71 392.064 500.454 392.064H501.054V391.512C501.054 390.728 500.886 390.16 500.55 389.808C500.214 389.44 499.67 389.256 498.918 389.256C498.454 389.256 497.982 389.328 497.502 389.472C497.022 389.6 496.454 389.792 495.798 390.048C495.382 390.256 495.078 390.36 494.886 390.36C494.598 390.36 494.358 390.256 494.166 390.048C493.99 389.84 493.902 389.568 493.902 389.232C493.902 388.96 493.966 388.728 494.094 388.536C494.238 388.328 494.47 388.136 494.79 387.96C495.35 387.656 496.014 387.416 496.782 387.24C497.566 387.064 498.334 386.976 499.086 386.976ZM498.342 397.032C499.142 397.032 499.79 396.768 500.286 396.24C500.798 395.696 501.054 395 501.054 394.152V393.648H500.622C499.55 393.648 498.718 393.696 498.126 393.792C497.534 393.888 497.11 394.056 496.854 394.296C496.598 394.536 496.47 394.864 496.47 395.28C496.47 395.792 496.646 396.216 496.998 396.552C497.366 396.872 497.814 397.032 498.342 397.032ZM512.166 399.192C510.998 399.192 509.966 398.944 509.07 398.448C508.19 397.952 507.51 397.248 507.03 396.336C506.55 395.424 506.31 394.36 506.31 393.144C506.31 391.928 506.558 390.856 507.054 389.928C507.566 388.984 508.278 388.256 509.19 387.744C510.102 387.232 511.15 386.976 512.334 386.976C512.958 386.976 513.582 387.064 514.206 387.24C514.846 387.416 515.406 387.656 515.886 387.96C516.398 388.296 516.654 388.72 516.654 389.232C516.654 389.584 516.566 389.872 516.39 390.096C516.23 390.304 516.014 390.408 515.742 390.408C515.566 390.408 515.382 390.368 515.19 390.288C514.998 390.208 514.806 390.112 514.614 390C514.262 389.792 513.926 389.632 513.606 389.52C513.286 389.392 512.918 389.328 512.502 389.328C511.51 389.328 510.742 389.656 510.198 390.312C509.67 390.952 509.406 391.88 509.406 393.096C509.406 394.296 509.67 395.224 510.198 395.88C510.742 396.52 511.51 396.84 512.502 396.84C512.902 396.84 513.254 396.784 513.558 396.672C513.878 396.544 514.23 396.376 514.614 396.168C514.854 396.024 515.062 395.92 515.238 395.856C515.414 395.776 515.59 395.736 515.766 395.736C516.022 395.736 516.238 395.848 516.414 396.072C516.59 396.296 516.678 396.576 516.678 396.912C516.678 397.184 516.614 397.424 516.486 397.632C516.374 397.824 516.182 398 515.91 398.16C515.414 398.48 514.838 398.736 514.182 398.928C513.526 399.104 512.854 399.192 512.166 399.192ZM524.844 396.912C525.644 396.96 526.044 397.32 526.044 397.992C526.044 398.376 525.884 398.672 525.564 398.88C525.26 399.072 524.82 399.152 524.243 399.12L523.596 399.072C520.908 398.88 519.564 397.44 519.564 394.752V389.52H518.364C517.932 389.52 517.596 389.424 517.356 389.232C517.131 389.04 517.019 388.76 517.019 388.392C517.019 388.024 517.131 387.744 517.356 387.552C517.596 387.36 517.932 387.264 518.364 387.264H519.564V385.056C519.564 384.624 519.7 384.28 519.972 384.024C520.244 383.768 520.612 383.64 521.076 383.64C521.524 383.64 521.884 383.768 522.156 384.024C522.428 384.28 522.564 384.624 522.564 385.056V387.264H524.604C525.036 387.264 525.364 387.36 525.588 387.552C525.828 387.744 525.948 388.024 525.948 388.392C525.948 388.76 525.828 389.04 525.588 389.232C525.364 389.424 525.036 389.52 524.604 389.52H522.564V394.968C522.564 396.152 523.108 396.784 524.196 396.864L524.844 396.912Z" fill="#F1F1F1"/>
</g>
<g filter="url(#filter5_d)">
<path d="M357.36 343.056C357.552 343.344 357.648 343.624 357.648 343.896C357.648 344.264 357.496 344.568 357.192 344.808C356.904 345.048 356.56 345.168 356.16 345.168C355.904 345.168 355.656 345.112 355.416 345C355.192 344.872 355 344.688 354.84 344.448L351.648 339.6C351.328 339.088 350.984 338.728 350.616 338.52C350.264 338.312 349.8 338.208 349.224 338.208H346.872V343.584C346.872 344.064 346.736 344.448 346.464 344.736C346.192 345.008 345.824 345.144 345.36 345.144C344.896 345.144 344.52 345.008 344.232 344.736C343.96 344.448 343.824 344.064 343.824 343.584V329.544C343.824 329.08 343.952 328.72 344.208 328.464C344.48 328.208 344.848 328.08 345.312 328.08H351.312C353.232 328.08 354.688 328.512 355.68 329.376C356.688 330.224 357.192 331.456 357.192 333.072C357.192 334.384 356.816 335.464 356.064 336.312C355.328 337.144 354.28 337.68 352.92 337.92C353.384 338.032 353.792 338.232 354.144 338.52C354.496 338.808 354.84 339.208 355.176 339.72L357.36 343.056ZM350.88 335.832C352.048 335.832 352.904 335.616 353.448 335.184C353.992 334.736 354.264 334.056 354.264 333.144C354.264 332.216 353.992 331.544 353.448 331.128C352.904 330.696 352.048 330.48 350.88 330.48H346.848V335.832H350.88ZM369.536 341.784C369.808 341.784 370.024 341.888 370.184 342.096C370.36 342.304 370.448 342.584 370.448 342.936C370.448 343.432 370.152 343.848 369.56 344.184C369.016 344.488 368.4 344.736 367.712 344.928C367.024 345.104 366.368 345.192 365.743 345.192C363.856 345.192 362.36 344.648 361.256 343.56C360.152 342.472 359.6 340.984 359.6 339.096C359.6 337.896 359.84 336.832 360.32 335.904C360.8 334.976 361.472 334.256 362.336 333.744C363.216 333.232 364.208 332.976 365.312 332.976C366.368 332.976 367.288 333.208 368.072 333.672C368.856 334.136 369.464 334.792 369.896 335.64C370.328 336.488 370.544 337.488 370.544 338.64C370.544 339.328 370.24 339.672 369.632 339.672H362.552C362.648 340.776 362.96 341.592 363.488 342.12C364.016 342.632 364.784 342.888 365.792 342.888C366.304 342.888 366.752 342.824 367.136 342.696C367.536 342.568 367.984 342.392 368.48 342.168C368.96 341.912 369.312 341.784 369.536 341.784ZM365.384 335.088C364.568 335.088 363.912 335.344 363.416 335.856C362.936 336.368 362.648 337.104 362.552 338.064H367.976C367.944 337.088 367.704 336.352 367.256 335.856C366.808 335.344 366.184 335.088 365.384 335.088ZM382.79 327.96C383.238 327.96 383.606 328.088 383.894 328.344C384.182 328.6 384.326 328.936 384.326 329.352V343.704C384.326 344.136 384.19 344.48 383.918 344.736C383.646 344.992 383.286 345.12 382.838 345.12C382.39 345.12 382.03 344.992 381.758 344.736C381.486 344.48 381.35 344.136 381.35 343.704V343.104C380.998 343.76 380.486 344.272 379.814 344.64C379.158 345.008 378.406 345.192 377.558 345.192C376.55 345.192 375.646 344.936 374.846 344.424C374.062 343.912 373.446 343.192 372.998 342.264C372.566 341.32 372.35 340.24 372.35 339.024C372.35 337.808 372.566 336.744 372.998 335.832C373.446 334.92 374.062 334.216 374.846 333.72C375.63 333.224 376.534 332.976 377.558 332.976C378.406 332.976 379.158 333.152 379.814 333.504C380.47 333.856 380.974 334.352 381.326 334.992V329.304C381.326 328.904 381.454 328.584 381.71 328.344C381.982 328.088 382.342 327.96 382.79 327.96ZM378.35 342.864C379.31 342.864 380.046 342.536 380.558 341.88C381.086 341.224 381.35 340.288 381.35 339.072C381.35 337.856 381.086 336.928 380.558 336.288C380.046 335.632 379.318 335.304 378.374 335.304C377.414 335.304 376.67 335.624 376.142 336.264C375.614 336.904 375.35 337.824 375.35 339.024C375.35 340.24 375.614 341.184 376.142 341.856C376.67 342.528 377.406 342.864 378.35 342.864ZM396.676 333.024C397.14 333.024 397.508 333.152 397.78 333.408C398.052 333.664 398.188 334.008 398.188 334.44V343.752C398.188 344.168 398.044 344.504 397.756 344.76C397.484 345.016 397.124 345.144 396.676 345.144C396.244 345.144 395.9 345.024 395.644 344.784C395.388 344.544 395.26 344.216 395.26 343.8V343.2C394.892 343.84 394.396 344.336 393.772 344.688C393.148 345.024 392.444 345.192 391.66 345.192C388.78 345.192 387.34 343.576 387.34 340.344V334.44C387.34 334.008 387.476 333.664 387.748 333.408C388.02 333.152 388.38 333.024 388.828 333.024C389.292 333.024 389.66 333.152 389.932 333.408C390.204 333.664 390.34 334.008 390.34 334.44V340.368C390.34 341.2 390.508 341.816 390.844 342.216C391.18 342.616 391.708 342.816 392.428 342.816C393.26 342.816 393.924 342.544 394.42 342C394.932 341.44 395.188 340.704 395.188 339.792V334.44C395.188 334.008 395.324 333.664 395.596 333.408C395.868 333.152 396.228 333.024 396.676 333.024ZM411.486 342.792C411.774 343.08 411.918 343.408 411.918 343.776C411.918 344.128 411.782 344.448 411.51 344.736C411.238 345.008 410.918 345.144 410.55 345.144C410.15 345.144 409.806 344.976 409.518 344.64L406.134 340.896L402.75 344.64C402.446 344.96 402.102 345.12 401.718 345.12C401.366 345.12 401.054 344.984 400.782 344.712C400.51 344.44 400.374 344.128 400.374 343.776C400.374 343.408 400.518 343.08 400.806 342.792L404.31 338.976L400.998 335.376C400.71 335.088 400.566 334.76 400.566 334.392C400.566 334.024 400.702 333.712 400.974 333.456C401.246 333.184 401.558 333.048 401.91 333.048C402.294 333.048 402.638 333.208 402.942 333.528L406.134 337.032L409.326 333.528C409.63 333.208 409.974 333.048 410.358 333.048C410.726 333.048 411.038 333.184 411.294 333.456C411.566 333.712 411.702 334.024 411.702 334.392C411.702 334.76 411.558 335.088 411.27 335.376L407.958 338.976L411.486 342.792Z" fill="#F1F1F1"/>
</g>
<g filter="url(#filter6_d)">
<path d="M259.712 524.856C260.08 524.856 260.376 524.968 260.6 525.192C260.824 525.4 260.936 525.68 260.936 526.032V531.192C260.936 531.928 260.84 532.448 260.648 532.752C260.456 533.056 260.064 533.304 259.472 533.496C258.832 533.72 258.088 533.896 257.24 534.024C256.392 534.152 255.576 534.216 254.792 534.216C253.048 534.216 251.536 533.872 250.256 533.184C248.976 532.496 247.992 531.504 247.304 530.208C246.632 528.896 246.296 527.336 246.296 525.528C246.296 523.752 246.632 522.216 247.304 520.92C247.992 519.608 248.96 518.608 250.208 517.92C251.456 517.216 252.928 516.864 254.624 516.864C256.88 516.864 258.728 517.472 260.168 518.688C260.36 518.864 260.496 519.04 260.576 519.216C260.672 519.392 260.72 519.6 260.72 519.84C260.72 520.192 260.624 520.488 260.432 520.728C260.24 520.968 260.008 521.088 259.736 521.088C259.56 521.088 259.4 521.064 259.256 521.016C259.112 520.952 258.944 520.856 258.752 520.728C258.048 520.232 257.392 519.888 256.784 519.696C256.176 519.488 255.488 519.384 254.72 519.384C252.976 519.384 251.656 519.904 250.76 520.944C249.88 521.968 249.44 523.496 249.44 525.528C249.44 529.688 251.264 531.768 254.912 531.768C256 531.768 257.088 531.616 258.176 531.312V527.064H255.464C255.08 527.064 254.776 526.968 254.552 526.776C254.344 526.584 254.24 526.312 254.24 525.96C254.24 525.608 254.344 525.336 254.552 525.144C254.776 524.952 255.08 524.856 255.464 524.856H259.712ZM265.65 534.144C265.218 534.144 264.858 534.024 264.57 533.784C264.298 533.528 264.162 533.168 264.162 532.704V523.44C264.162 522.976 264.298 522.624 264.57 522.384C264.858 522.144 265.218 522.024 265.65 522.024C266.082 522.024 266.442 522.144 266.73 522.384C267.018 522.624 267.162 522.976 267.162 523.44V532.704C267.162 533.168 267.018 533.528 266.73 533.784C266.442 534.024 266.082 534.144 265.65 534.144ZM265.65 519.888C265.106 519.888 264.674 519.744 264.354 519.456C264.034 519.152 263.874 518.76 263.874 518.28C263.874 517.8 264.034 517.416 264.354 517.128C264.674 516.84 265.106 516.696 265.65 516.696C266.178 516.696 266.602 516.84 266.922 517.128C267.258 517.416 267.426 517.8 267.426 518.28C267.426 518.76 267.266 519.152 266.946 519.456C266.626 519.744 266.194 519.888 265.65 519.888ZM276.351 531.912C277.151 531.96 277.551 532.32 277.551 532.992C277.551 533.376 277.391 533.672 277.071 533.88C276.767 534.072 276.327 534.152 275.751 534.12L275.103 534.072C272.415 533.88 271.071 532.44 271.071 529.752V524.52H269.871C269.439 524.52 269.103 524.424 268.863 524.232C268.639 524.04 268.527 523.76 268.527 523.392C268.527 523.024 268.639 522.744 268.863 522.552C269.103 522.36 269.439 522.264 269.871 522.264H271.071V520.056C271.071 519.624 271.207 519.28 271.479 519.024C271.751 518.768 272.119 518.64 272.583 518.64C273.031 518.64 273.391 518.768 273.663 519.024C273.935 519.28 274.071 519.624 274.071 520.056V522.264H276.111C276.543 522.264 276.871 522.36 277.095 522.552C277.335 522.744 277.455 523.024 277.455 523.392C277.455 523.76 277.335 524.04 277.095 524.232C276.871 524.424 276.543 524.52 276.111 524.52H274.071V529.968C274.071 531.152 274.615 531.784 275.703 531.864L276.351 531.912Z" fill="#F1F1F1"/>
</g>
<defs>
<filter id="filter0_d" x="424.824" y="215.96" width="98.2019" height="37.232" filterUnits="userSpaceOnUse" color-interpolation-filters="sRGB">
<feFlood flood-opacity="0" result="BackgroundImageFix"/>
<feColorMatrix in="SourceAlpha" type="matrix" values="0 0 0 0 0 0 0 0 0 0 0 0 0 0 0 0 0 0 127 0"/>
<feOffset/>
<feGaussianBlur stdDeviation="5"/>
<feColorMatrix type="matrix" values="0 0 0 0 0.239216 0 0 0 0 0.870588 0 0 0 0 0.929412 0 0 0 0.5 0"/>
<feBlend mode="normal" in2="BackgroundImageFix" result="effect1_dropShadow"/>
<feBlend mode="normal" in="SourceGraphic" in2="effect1_dropShadow" result="shape"/>
</filter>
<filter id="filter1_d" x="242.296" y="254.864" width="78.1863" height="37.352" filterUnits="userSpaceOnUse" color-interpolation-filters="sRGB">
<feFlood flood-opacity="0" result="BackgroundImageFix"/>
<feColorMatrix in="SourceAlpha" type="matrix" values="0 0 0 0 0 0 0 0 0 0 0 0 0 0 0 0 0 0 127 0"/>
<feOffset/>
<feGaussianBlur stdDeviation="5"/>
<feColorMatrix type="matrix" values="0 0 0 0 0.239216 0 0 0 0 0.870588 0 0 0 0 0.929412 0 0 0 0.5 0"/>
<feBlend mode="normal" in2="BackgroundImageFix" result="effect1_dropShadow"/>
<feBlend mode="normal" in="SourceGraphic" in2="effect1_dropShadow" result="shape"/>
</filter>
<filter id="filter2_d" x="202.664" y="400.696" width="132.833" height="41.744" filterUnits="userSpaceOnUse" color-interpolation-filters="sRGB">
<feFlood flood-opacity="0" result="BackgroundImageFix"/>
<feColorMatrix in="SourceAlpha" type="matrix" values="0 0 0 0 0 0 0 0 0 0 0 0 0 0 0 0 0 0 127 0"/>
<feOffset/>
<feGaussianBlur stdDeviation="5"/>
<feColorMatrix type="matrix" values="0 0 0 0 0.239216 0 0 0 0 0.870588 0 0 0 0 0.929412 0 0 0 0.5 0"/>
<feBlend mode="normal" in2="BackgroundImageFix" result="effect1_dropShadow"/>
<feBlend mode="normal" in="SourceGraphic" in2="effect1_dropShadow" result="shape"/>
</filter>
<filter id="filter3_d" x="371.664" y="455.96" width="92.3221" height="41.48" filterUnits="userSpaceOnUse" color-interpolation-filters="sRGB">
<feFlood flood-opacity="0" result="BackgroundImageFix"/>
<feColorMatrix in="SourceAlpha" type="matrix" values="0 0 0 0 0 0 0 0 0 0 0 0 0 0 0 0 0 0 127 0"/>
<feOffset/>
<feGaussianBlur stdDeviation="5"/>
<feColorMatrix type="matrix" values="0 0 0 0 0.239216 0 0 0 0 0.870588 0 0 0 0 0.929412 0 0 0 0.5 0"/>
<feBlend mode="normal" in2="BackgroundImageFix" result="effect1_dropShadow"/>
<feBlend mode="normal" in="SourceGraphic" in2="effect1_dropShadow" result="shape"/>
</filter>
<filter id="filter4_d" x="454.824" y="372.08" width="81.2195" height="37.112" filterUnits="userSpaceOnUse" color-interpolation-filters="sRGB">
<feFlood flood-opacity="0" result="BackgroundImageFix"/>
<feColorMatrix in="SourceAlpha" type="matrix" values="0 0 0 0 0 0 0 0 0 0 0 0 0 0 0 0 0 0 127 0"/>
<feOffset/>
<feGaussianBlur stdDeviation="5"/>
<feColorMatrix type="matrix" values="0 0 0 0 0.239216 0 0 0 0 0.870588 0 0 0 0 0.929412 0 0 0 0.5 0"/>
<feBlend mode="normal" in2="BackgroundImageFix" result="effect1_dropShadow"/>
<feBlend mode="normal" in="SourceGraphic" in2="effect1_dropShadow" result="shape"/>
</filter>
<filter id="filter5_d" x="333.824" y="317.96" width="88.094" height="37.232" filterUnits="userSpaceOnUse" color-interpolation-filters="sRGB">
<feFlood flood-opacity="0" result="BackgroundImageFix"/>
<feColorMatrix in="SourceAlpha" type="matrix" values="0 0 0 0 0 0 0 0 0 0 0 0 0 0 0 0 0 0 127 0"/>
<feOffset/>
<feGaussianBlur stdDeviation="5"/>
<feColorMatrix type="matrix" values="0 0 0 0 0.239216 0 0 0 0 0.870588 0 0 0 0 0.929412 0 0 0 0.5 0"/>
<feBlend mode="normal" in2="BackgroundImageFix" result="effect1_dropShadow"/>
<feBlend mode="normal" in="SourceGraphic" in2="effect1_dropShadow" result="shape"/>
</filter>
<filter id="filter6_d" x="236.296" y="506.696" width="51.2553" height="37.52" filterUnits="userSpaceOnUse" color-interpolation-filters="sRGB">
<feFlood flood-opacity="0" result="BackgroundImageFix"/>
<feColorMatrix in="SourceAlpha" type="matrix" values="0 0 0 0 0 0 0 0 0 0 0 0 0 0 0 0 0 0 127 0"/>
<feOffset/>
<feGaussianBlur stdDeviation="5"/>
<feColorMatrix type="matrix" values="0 0 0 0 0.239216 0 0 0 0 0.870588 0 0 0 0 0.929412 0 0 0 0.5 0"/>
<feBlend mode="normal" in2="BackgroundImageFix" result="effect1_dropShadow"/>
<feBlend mode="normal" in="SourceGraphic" in2="effect1_dropShadow" result="shape"/>
</filter>
<linearGradient id="paint0_linear" x1="158.826" y1="374.465" x2="591.171" y2="374.465" gradientUnits="userSpaceOnUse">
<stop stop-color="#3DDEED"/>
<stop offset="0.996575" stop-color="#CB00DD"/>
<stop offset="1" stop-color="#CB00DD"/>
</linearGradient>
<linearGradient id="paint1_linear" x1="136.963" y1="374.465" x2="613.039" y2="374.465" gradientUnits="userSpaceOnUse">
<stop stop-color="#3DDEED"/>
<stop offset="0.996575" stop-color="#CB00DD"/>
<stop offset="1" stop-color="#CB00DD"/>
</linearGradient>
<linearGradient id="paint2_linear" x1="116.052" y1="374.465" x2="633.948" y2="374.465" gradientUnits="userSpaceOnUse">
<stop stop-color="#3DDEED"/>
<stop offset="0.996575" stop-color="#CB00DD"/>
<stop offset="1" stop-color="#CB00DD"/>
</linearGradient>
<linearGradient id="paint3_linear" x1="96.3228" y1="374.465" x2="653.674" y2="374.465" gradientUnits="userSpaceOnUse">
<stop stop-color="#3DDEED"/>
<stop offset="0.996575" stop-color="#CB00DD"/>
<stop offset="1" stop-color="#CB00DD"/>
</linearGradient>
<linearGradient id="paint4_linear" x1="77.9253" y1="374.466" x2="672.076" y2="374.466" gradientUnits="userSpaceOnUse">
<stop stop-color="#3DDEED"/>
<stop offset="0.996575" stop-color="#CB00DD"/>
<stop offset="1" stop-color="#CB00DD"/>
</linearGradient>
<linearGradient id="paint5_linear" x1="61.061" y1="374.465" x2="688.94" y2="374.465" gradientUnits="userSpaceOnUse">
<stop stop-color="#3DDEED"/>
<stop offset="0.996575" stop-color="#CB00DD"/>
<stop offset="1" stop-color="#CB00DD"/>
</linearGradient>
<linearGradient id="paint6_linear" x1="45.914" y1="374.465" x2="704.086" y2="374.465" gradientUnits="userSpaceOnUse">
<stop stop-color="#3DDEED"/>
<stop offset="0.996575" stop-color="#CB00DD"/>
<stop offset="1" stop-color="#CB00DD"/>
</linearGradient>
<linearGradient id="paint7_linear" x1="32.6596" y1="374.466" x2="717.341" y2="374.466" gradientUnits="userSpaceOnUse">
<stop stop-color="#3DDEED"/>
<stop offset="0.996575" stop-color="#CB00DD"/>
<stop offset="1" stop-color="#CB00DD"/>
</linearGradient>
<linearGradient id="paint8_linear" x1="21.4594" y1="374.465" x2="728.537" y2="374.465" gradientUnits="userSpaceOnUse">
<stop stop-color="#3DDEED"/>
<stop offset="0.996575" stop-color="#CB00DD"/>
<stop offset="1" stop-color="#CB00DD"/>
</linearGradient>
<linearGradient id="paint9_linear" x1="12.4652" y1="374.465" x2="737.532" y2="374.465" gradientUnits="userSpaceOnUse">
<stop stop-color="#3DDEED"/>
<stop offset="0.996575" stop-color="#CB00DD"/>
<stop offset="1" stop-color="#CB00DD"/>
</linearGradient>
<linearGradient id="paint10_linear" x1="5.81184" y1="374.465" x2="744.185" y2="374.465" gradientUnits="userSpaceOnUse">
<stop stop-color="#3DDEED"/>
<stop offset="0.996575" stop-color="#CB00DD"/>
<stop offset="1" stop-color="#CB00DD"/>
</linearGradient>
<linearGradient id="paint11_linear" x1="1.62295" y1="374.465" x2="748.378" y2="374.465" gradientUnits="userSpaceOnUse">
<stop stop-color="#3DDEED"/>
<stop offset="0.996575" stop-color="#CB00DD"/>
<stop offset="1" stop-color="#CB00DD"/>
</linearGradient>
<linearGradient id="paint12_linear" x1="-0.00272669" y1="374.466" x2="750" y2="374.466" gradientUnits="userSpaceOnUse">
<stop stop-color="#3DDEED"/>
<stop offset="0.996575" stop-color="#CB00DD"/>
<stop offset="1" stop-color="#CB00DD"/>
</linearGradient>
<linearGradient id="paint13_linear" x1="1.03436" y1="374.465" x2="748.966" y2="374.465" gradientUnits="userSpaceOnUse">
<stop stop-color="#3DDEED"/>
<stop offset="0.996575" stop-color="#CB00DD"/>
<stop offset="1" stop-color="#CB00DD"/>
</linearGradient>
<linearGradient id="paint14_linear" x1="4.79028" y1="374.533" x2="745.206" y2="374.533" gradientUnits="userSpaceOnUse">
<stop stop-color="#3DDEED"/>
<stop offset="0.996575" stop-color="#CB00DD"/>
<stop offset="1" stop-color="#CB00DD"/>
</linearGradient>
<linearGradient id="paint15_linear" x1="11.3203" y1="373.803" x2="738.676" y2="373.803" gradientUnits="userSpaceOnUse">
<stop stop-color="#3DDEED"/>
<stop offset="0.996575" stop-color="#CB00DD"/>
<stop offset="1" stop-color="#CB00DD"/>
</linearGradient>
<linearGradient id="paint16_linear" x1="20.6527" y1="374.465" x2="729.349" y2="374.465" gradientUnits="userSpaceOnUse">
<stop stop-color="#3DDEED"/>
<stop offset="0.996575" stop-color="#CB00DD"/>
<stop offset="1" stop-color="#CB00DD"/>
</linearGradient>
<linearGradient id="paint17_linear" x1="32.7867" y1="374.465" x2="717.21" y2="374.465" gradientUnits="userSpaceOnUse">
<stop stop-color="#3DDEED"/>
<stop offset="0.996575" stop-color="#CB00DD"/>
<stop offset="1" stop-color="#CB00DD"/>
</linearGradient>
<linearGradient id="paint18_linear" x1="47.7072" y1="374.42" x2="702.29" y2="374.42" gradientUnits="userSpaceOnUse">
<stop stop-color="#3DDEED"/>
<stop offset="0.996575" stop-color="#CB00DD"/>
<stop offset="1" stop-color="#CB00DD"/>
</linearGradient>
<linearGradient id="paint19_linear" x1="65.3777" y1="374.465" x2="684.624" y2="374.465" gradientUnits="userSpaceOnUse">
<stop stop-color="#3DDEED"/>
<stop offset="0.996575" stop-color="#CB00DD"/>
<stop offset="1" stop-color="#CB00DD"/>
</linearGradient>
<linearGradient id="paint20_linear" x1="86" y1="374.498" x2="665.004" y2="374.498" gradientUnits="userSpaceOnUse">
<stop stop-color="#3DDEED"/>
<stop offset="0.996575" stop-color="#CB00DD"/>
<stop offset="1" stop-color="#CB00DD"/>
</linearGradient>
</defs>
</svg>
