<svg width="20" height="30" viewBox="0 0 20 30" fill="none" xmlns="http://www.w3.org/2000/svg">
<path d="M9.87844 0.173373C10.4966 0.530277 10.7084 1.32073 10.3515 1.93891L2.4121 15.6904C2.0552 16.3086 1.26474 16.5204 0.646566 16.1635C0.0283911 15.8065 -0.183412 15.0161 0.173492 14.3979L8.1129 0.646447C8.46981 0.0282716 9.26026 -0.183531 9.87844 0.173373Z" fill="#F1F1F1"/>
<path d="M9.87845 29.8266C9.26028 30.1835 8.46982 29.9717 8.11292 29.3536L0.173507 15.6021C-0.183396 14.9839 0.0284055 14.1935 0.646581 13.8365C1.26476 13.4796 2.05521 13.6914 2.41212 14.3096L10.3515 28.0611C10.7084 28.6793 10.4966 29.4697 9.87845 29.8266Z" fill="#F1F1F1"/>
<path d="M18.7567 3.14448C19.2718 3.4419 19.4483 4.10061 19.1509 4.61576L12.5347 16.0753C12.2373 16.5905 11.5786 16.767 11.0635 16.4695C10.5483 16.1721 10.3718 15.5134 10.6692 14.9983L17.2854 3.53871C17.5828 3.02356 18.2415 2.84706 18.7567 3.14448Z" fill="#F1F1F1"/>
<path d="M18.7567 27.8555C18.2416 28.1529 17.5828 27.9764 17.2854 27.4613L10.6692 16.0017C10.3718 15.4866 10.5483 14.8279 11.0635 14.5305C11.5786 14.233 12.2373 14.4095 12.5348 14.9247L19.1509 26.3842C19.4484 26.8994 19.2718 27.5581 18.7567 27.8555Z" fill="#F1F1F1"/>
</svg>
