<svg width="44" height="44" viewBox="0 0 44 44" fill="none" xmlns="http://www.w3.org/2000/svg">
<g filter="url(#filter0_d)">
<path d="M22 10C15.4089 10 10 15.4089 10 22C10 27.6245 13.9467 32.7336 19.1875 34V30.0299C18.6682 30.1436 18.1903 30.1469 17.6617 29.9911C16.9525 29.7818 16.3763 29.3094 15.9485 28.5891C15.6759 28.1291 15.1927 27.6303 14.6886 27.6669L14.565 26.2662C15.655 26.1728 16.598 26.9303 17.1578 27.8707C17.4064 28.2889 17.6926 28.5341 18.0599 28.6425C18.415 28.7471 18.7962 28.6969 19.2404 28.54C19.3519 27.6506 19.7593 27.3177 20.0671 26.849V26.8483C16.9415 26.3821 15.6959 24.7239 15.2015 23.415C14.5463 21.6772 14.8979 19.5061 16.0564 18.1341C16.0789 18.1074 16.1196 18.0374 16.1038 17.9885C15.5726 16.384 16.2199 15.0566 16.2437 14.9158C16.8568 15.0971 16.9564 14.7335 18.9066 15.9183L19.2437 16.1208C19.3847 16.2049 19.3404 16.1569 19.4814 16.1463C20.2957 15.9251 21.1541 15.803 21.9998 15.792C22.852 15.803 23.7049 15.9251 24.5529 16.1553L24.662 16.1663C24.6525 16.1648 24.6917 16.1593 24.7574 16.1201C27.1936 14.6445 27.1061 15.1268 27.7594 14.9144C27.783 15.0554 28.4217 16.4043 27.8962 17.9885C27.8253 18.2068 30.0083 20.2057 28.7983 23.4145C28.304 24.7239 27.0585 26.3821 23.9329 26.8483V26.849C24.3335 27.4597 24.8149 27.7845 24.8123 29.0443V34C30.0533 32.7336 33.9998 27.6245 33.9998 22C34 15.4089 28.5911 10 22 10V10Z" fill="#F1F1F1"/>
</g>
<defs>
<filter id="filter0_d" x="0" y="0" width="43.9998" height="44" filterUnits="userSpaceOnUse" color-interpolation-filters="sRGB">
<feFlood flood-opacity="0" result="BackgroundImageFix"/>
<feColorMatrix in="SourceAlpha" type="matrix" values="0 0 0 0 0 0 0 0 0 0 0 0 0 0 0 0 0 0 127 0"/>
<feOffset/>
<feGaussianBlur stdDeviation="5"/>
<feColorMatrix type="matrix" values="0 0 0 0 0.239216 0 0 0 0 0.870588 0 0 0 0 0.929412 0 0 0 0.5 0"/>
<feBlend mode="normal" in2="BackgroundImageFix" result="effect1_dropShadow"/>
<feBlend mode="normal" in="SourceGraphic" in2="effect1_dropShadow" result="shape"/>
</filter>
</defs>
</svg>
