<svg width="750" height="649" viewBox="0 0 750 649" fill="none" xmlns="http://www.w3.org/2000/svg">
<path d="M572.812 50.6732C570.356 50.6732 567.753 51.0968 565.07 51.9595L197.06 170.199C182.76 174.795 170.801 190.363 170.399 204.908L160.141 579.246C159.958 586.097 162.359 591.72 166.914 595.073C171.596 598.524 177.994 599.199 184.93 596.971L552.936 478.728C567.236 474.136 579.2 458.563 579.597 444.022L589.855 69.6851L590.511 69.7008L589.855 69.6851C590.038 62.8302 587.638 57.2144 583.087 53.8575C580.217 51.7438 576.699 50.6732 572.812 50.6732ZM177.18 599.552C173.014 599.552 169.231 598.395 166.127 596.104C161.226 592.497 158.635 586.493 158.833 579.21L169.092 204.873C169.509 189.83 181.87 173.724 196.659 168.971L564.665 50.736C572.018 48.3712 578.838 49.1124 583.873 52.8262C588.77 56.4379 591.357 62.438 591.163 69.7203L580.905 444.053C580.491 459.101 568.127 475.206 553.342 479.955L185.331 598.198C182.514 599.104 179.771 599.552 177.18 599.552Z" fill="url(#paint0_linear)"/>
<path d="M594.331 60.7203C592.444 60.7203 590.468 60.9595 588.425 61.4418L211.373 150.246C196.723 153.701 183.436 168.634 181.751 183.54L138.465 567.077C137.658 574.246 139.637 580.313 144.045 584.152C148.389 587.94 154.617 589.128 161.577 587.489L538.629 498.681C553.275 495.23 566.566 480.297 568.247 465.391L611.533 81.8577C612.344 74.6852 610.36 68.6221 605.953 64.779C602.884 62.1005 598.874 60.7203 594.331 60.7203ZM155.659 589.52C150.798 589.52 146.486 588.03 143.167 585.136C138.429 581.003 136.287 574.536 137.145 566.928L180.432 183.395C182.169 167.983 195.912 152.544 211.063 148.971L588.115 60.1673C595.504 58.4261 602.153 59.7163 606.835 63.7947C611.573 67.9281 613.711 74.395 612.852 82.0028L569.566 465.54C567.829 480.948 554.09 496.387 538.935 499.956L161.883 588.764C159.737 589.269 157.65 589.52 155.659 589.52Z" fill="url(#paint1_linear)"/>
<path d="M614.752 72.9478C613.492 72.9478 612.188 73.046 610.849 73.2499L227.386 131.026C212.493 133.27 197.939 147.434 194.946 162.595L117.948 552.65C116.478 560.097 117.996 566.591 122.217 570.932C126.211 575.038 132.221 576.724 139.148 575.681L522.611 517.905C537.508 515.658 552.058 501.497 555.055 486.336L632.053 96.2773L632.712 96.4067L632.053 96.2773C633.524 88.8302 632.005 82.3398 627.784 77.9987C624.557 74.6849 620.022 72.9478 614.752 72.9478ZM135.237 577.313C129.602 577.313 124.729 575.434 121.243 571.854C116.708 567.191 115.071 560.281 116.625 552.395L193.623 162.34C196.719 146.669 211.774 132.034 227.187 129.712L610.646 71.9321C618.023 70.8262 624.449 72.6498 628.754 77.0773C633.289 81.74 634.93 88.6498 633.376 96.5361L556.379 486.591C553.282 502.258 538.227 516.897 522.814 519.218L139.355 576.995C137.944 577.211 136.573 577.313 135.237 577.313Z" fill="url(#paint2_linear)"/>
<path d="M633.885 87.3044C633.312 87.3044 632.732 87.3242 632.144 87.3634L245.04 112.708C230.009 113.689 214.266 126.944 209.942 142.253L98.7829 536.018C96.6486 543.579 97.682 550.658 101.621 555.438C105.249 559.838 111.032 562.014 117.857 561.567L504.96 536.222C519.988 535.238 535.734 521.987 540.055 506.677L651.217 112.912C653.352 105.351 652.314 98.2731 648.375 93.4928C645.061 89.4692 639.962 87.3044 633.885 87.3044ZM116.108 562.975C109.613 562.975 104.14 560.638 100.555 556.289C96.3346 551.163 95.2059 543.646 97.4634 535.654L208.622 141.889C213.089 126.073 229.381 112.375 244.945 111.359L632.053 86.0142C639.35 85.5397 645.522 87.8928 649.441 92.6418C653.662 97.7634 654.791 105.289 652.537 113.277L541.374 507.042C536.911 522.857 520.616 536.552 505.052 537.571L117.944 562.916C117.324 562.956 116.716 562.975 116.108 562.975Z" fill="url(#paint3_linear)"/>
<path d="M263.653 95.4498C248.749 95.4498 232.263 107.548 226.679 122.689L81.1565 517.23C78.3108 524.956 78.7798 532.419 82.4482 537.705C85.6874 542.383 91.1762 545.038 97.8892 545.183L485.76 553.473C500.847 553.803 517.663 541.579 523.323 526.242L668.841 131.701C671.687 123.975 671.221 116.513 667.553 111.226C664.31 106.548 658.825 103.893 652.108 103.748L264.241 95.4579C264.047 95.45 263.848 95.4498 263.653 95.4498ZM486.34 554.854C486.134 554.854 485.935 554.85 485.728 554.846L97.8573 546.556C90.6834 546.403 84.8012 543.532 81.2957 538.481C77.3728 532.822 76.8443 524.909 79.853 516.764L225.371 122.223C231.142 106.579 248.216 94.0773 263.661 94.0773C263.864 94.0773 264.067 94.0814 264.269 94.0853L652.136 102.375C659.314 102.528 665.2 105.399 668.702 110.454C672.625 116.109 673.153 124.027 670.148 132.172L669.497 131.932L670.148 132.172L524.627 526.713C518.86 542.352 501.781 554.854 486.34 554.854Z" fill="url(#paint4_linear)"/>
<path d="M281.844 79.2729C267.584 79.2729 251.598 89.8496 245.076 104.081L65.2622 496.375C61.6812 504.191 61.5421 511.999 64.8806 517.791C67.7224 522.736 72.9011 525.857 79.4551 526.587L465.116 569.489C480.072 571.155 497.934 560.1 504.921 544.853L684.739 152.555C688.32 144.74 688.459 136.932 685.12 131.14C682.27 126.195 677.1 123.073 670.546 122.344L284.885 79.4418C283.883 79.328 282.866 79.2729 281.844 79.2729ZM468.125 571.046C467.056 571.046 465.998 570.991 464.957 570.873L79.2961 527.971C72.2851 527.191 66.7247 523.822 63.6524 518.481C60.0873 512.293 60.2065 504.026 63.9744 495.799L243.788 103.5C251.014 87.7436 269.515 76.3397 285.044 78.0573L670.705 120.959C677.716 121.74 683.268 125.108 686.348 130.454C689.909 136.638 689.794 144.905 686.022 153.132L685.382 152.842L686.022 153.132L506.208 545.426C499.467 560.124 482.914 571.046 468.125 571.046Z" fill="url(#paint5_linear)"/>
<path d="M301.271 64.2692C287.662 64.2692 272.341 73.4067 265.052 86.5949L51.2716 473.544C46.9433 481.375 46.1565 489.477 49.1056 495.767C51.538 500.967 56.3788 504.548 62.73 505.853L443.137 584.104C457.878 587.14 476.638 577.375 484.944 562.336L698.728 175.387L699.356 175.724L698.728 175.387C703.057 167.556 703.844 159.457 700.895 153.159C698.458 147.963 693.621 144.379 687.27 143.073L306.863 64.8222C305.051 64.4496 303.179 64.2692 301.271 64.2692ZM448.681 586.069C446.69 586.069 444.734 585.881 442.839 585.489L62.4358 507.238C55.6275 505.838 50.4329 501.979 47.8018 496.363C44.662 489.657 45.4649 481.093 50.0078 472.865L263.792 85.9163C272.384 70.3712 291.836 60.2888 307.157 63.4377L687.564 141.689C694.365 143.089 699.563 146.956 702.194 152.567C705.338 159.273 704.531 167.838 699.988 176.065L486.204 563.01C478.677 576.638 462.803 586.069 448.681 586.069Z" fill="url(#paint6_linear)"/>
<path d="M321.804 50.5751C308.887 50.5751 294.36 58.3674 286.495 70.4105L39.3487 448.858C34.2812 456.615 32.8068 464.952 35.3027 471.728C37.3059 477.172 41.7811 481.207 47.9018 483.081L419.95 597.171C434.362 601.591 453.9 593.226 463.503 578.52L710.652 200.077L711.261 200.465L710.652 200.077C715.72 192.32 717.194 183.983 714.698 177.203C712.691 171.76 708.216 167.724 702.095 165.85L330.047 51.7596C327.44 50.9597 324.661 50.5751 321.804 50.5751ZM428.141 599.779C425.152 599.779 422.251 599.379 419.517 598.544L47.4725 484.454C40.9066 482.442 36.0976 478.097 33.9315 472.219C31.2845 465.015 32.8066 456.218 38.1245 448.077L285.274 69.63C295.207 54.4222 315.476 45.7871 330.484 50.3871L702.528 164.477C709.094 166.493 713.903 170.834 716.061 176.713C718.716 183.917 717.19 192.716 711.877 200.854L464.723 579.297C456.599 591.74 441.555 599.779 428.141 599.779Z" fill="url(#paint7_linear)"/>
<path d="M343.314 38.3284C331.132 38.3284 317.527 44.8811 309.292 55.689L29.6509 422.442C23.8601 430.038 21.6741 438.544 23.6494 445.771C25.1995 451.461 29.2853 455.936 35.1477 458.379L395.701 608.532C409.66 614.344 429.846 607.485 440.705 593.242L720.35 226.489L720.938 226.928L720.35 226.489C726.141 218.893 728.327 210.391 726.352 203.156C724.802 197.469 720.712 192.991 714.849 190.552L354.299 40.3948C350.925 38.9909 347.193 38.3284 343.314 38.3284ZM406.636 612.046C402.57 612.046 398.659 611.348 395.125 609.877L34.5754 459.724C28.2838 457.105 23.8918 452.285 22.2186 446.156C20.128 438.485 22.4053 429.52 28.4704 421.564L308.112 54.8104C319.351 40.0654 340.329 32.9949 354.872 39.0537L715.422 189.206C721.717 191.83 726.105 196.646 727.778 202.779C729.873 210.446 727.595 219.407 721.526 227.367L441.889 594.12C433.376 605.281 419.29 612.046 406.636 612.046Z" fill="url(#paint8_linear)"/>
<path d="M365.663 27.6459C354.28 27.6459 341.7 33.081 333.298 42.5869L22.33 394.454C15.8436 401.795 12.9143 410.391 14.3014 418.038C15.3785 423.96 19.043 428.877 24.6272 431.881L370.543 618.057C383.925 625.257 404.628 620.002 416.699 606.344L727.667 254.477C734.157 247.136 737.083 238.54 735.696 230.897C734.619 224.971 730.958 220.053 725.37 217.05L379.454 30.8773C375.388 28.6852 370.639 27.6459 365.663 27.6459ZM384.295 622.744C379.077 622.744 374.096 621.654 369.824 619.355L23.9078 433.183C17.9182 429.956 13.9835 424.673 12.8269 418.297C11.3603 410.207 14.4088 401.159 21.1972 393.481L332.169 41.6145C344.677 27.4616 366.211 22.0615 380.173 29.5753L726.089 215.752C732.083 218.971 736.017 224.262 737.174 230.634C738.641 238.724 735.592 247.767 728.804 255.449L728.236 254.964L728.804 255.449L417.832 607.316C409.151 617.136 396.119 622.744 384.295 622.744Z" fill="url(#paint9_linear)"/>
<path d="M388.719 18.6577C378.202 18.6577 366.724 23.085 358.369 31.2615L17.5048 365.062C10.3666 372.054 6.69409 380.654 7.42937 388.661C7.99375 394.814 11.2131 400.168 16.4873 403.736L344.641 625.603C357.324 634.179 378.4 630.618 391.628 617.665L732.492 283.869L733.033 284.403L732.492 283.869C739.634 276.877 743.307 268.277 742.568 260.273C742.007 254.117 738.788 248.764 733.51 245.195L405.355 23.3283C400.681 20.1675 394.863 18.6577 388.719 18.6577ZM361.255 631.759C354.812 631.759 348.699 630.167 343.779 626.846L15.6248 404.975C9.96912 401.152 6.51928 395.403 5.91119 388.795C5.13219 380.34 8.96746 371.304 16.4316 363.995L357.3 30.1949C371.02 16.7635 392.963 13.1243 406.214 22.0891L734.372 243.956C740.032 247.779 743.482 253.528 744.086 260.136C744.865 268.587 741.034 277.63 733.569 284.936L392.701 618.736C384.068 627.187 372.184 631.759 361.255 631.759Z" fill="url(#paint10_linear)"/>
<path d="M412.343 11.4535C402.756 11.4535 392.443 15.0023 384.351 21.8533L15.2951 334.449C7.56475 340.998 3.14124 349.512 3.16906 357.807C3.18893 364.187 5.92323 369.975 10.8675 374.108L318.175 631.061C330.039 640.983 351.339 639.199 365.647 627.077L734.706 314.481L735.207 315.061L734.706 314.481C742.436 307.932 746.856 299.418 746.832 291.124C746.812 284.744 744.074 278.955 739.134 274.822L431.826 17.8693C426.667 13.5556 419.719 11.4535 412.343 11.4535ZM337.65 638.983C329.908 638.983 322.607 636.771 317.174 632.226L9.86612 375.273C4.57209 370.85 1.6428 364.646 1.62293 357.814C1.59511 349.069 6.20944 340.132 14.2856 333.289L383.345 20.6967C398.206 8.10852 420.403 6.3161 432.823 16.7043L740.131 273.657C745.425 278.085 748.355 284.285 748.374 291.116C748.406 299.861 743.788 308.799 735.712 315.638L366.652 628.234C358.294 635.316 347.606 638.983 337.65 638.983Z" fill="url(#paint11_linear)"/>
<path d="M436.413 6.15161C427.82 6.15161 418.69 8.92816 411.059 14.4968L15.7999 302.811C7.54087 308.838 2.38601 317.168 1.65471 325.669C1.09033 332.258 3.30011 338.481 7.8827 343.183L291.324 634.32C302.261 645.556 323.62 645.607 338.938 634.434L734.201 346.116C742.46 340.097 747.615 331.764 748.346 323.262C748.907 316.674 746.693 310.454 742.115 305.748L458.674 14.6105C453.185 8.97528 445.069 6.15161 436.413 6.15161ZM313.601 644.313C304.515 644.313 295.978 641.336 290.191 635.395L6.74994 344.258C1.85336 339.226 -0.511462 332.579 0.0926611 325.54C0.859738 316.595 6.24514 307.858 14.8658 301.568L410.129 13.2499C426.055 1.63422 448.34 1.75946 459.806 13.5359L743.247 304.673C748.148 309.705 750.508 316.352 749.908 323.391C749.141 332.34 743.756 341.077 735.131 347.364L734.666 346.744L735.131 347.364L339.872 635.681C331.979 641.438 322.523 644.313 313.601 644.313Z" fill="url(#paint12_linear)"/>
<path d="M460.788 2.83392C453.24 2.83392 445.311 4.95154 438.324 9.3045L19.0944 270.367C10.3903 275.787 4.52792 283.838 3.00569 292.45C1.80937 299.23 3.45875 305.873 7.64389 311.16L264.289 635.285C274.185 647.787 295.441 649.732 311.677 639.626L730.906 378.563L731.332 379.23L730.906 378.563C739.606 373.144 745.469 365.097 746.991 356.477C748.183 349.701 746.538 343.058 742.357 337.771L485.708 13.642C480.072 6.53217 470.76 2.83392 460.788 2.83392ZM289.237 647.654C278.772 647.654 268.971 643.756 263.033 636.254L6.38808 312.128C1.92075 306.489 0.159976 299.406 1.43976 292.179C3.03353 283.128 9.15823 274.693 18.2399 269.038L437.469 7.97522C454.377 -2.55029 476.579 -0.444275 486.968 12.6773L743.613 336.803C748.076 342.442 749.837 349.528 748.561 356.748C746.963 365.803 740.838 374.238 731.757 379.897L312.527 640.956C305.29 645.465 297.078 647.654 289.237 647.654Z" fill="url(#paint13_linear)"/>
<path d="M485.338 1.65497C478.868 1.65497 472.139 3.20782 465.935 6.46271L25.2389 237.408C16.1851 242.153 9.65096 249.824 7.32191 258.447C5.44992 265.388 6.48332 272.443 10.2352 278.318L237.274 633.949C246.026 647.659 267.015 651.541 284.066 642.604L724.758 411.663C733.815 406.914 740.349 399.243 742.674 390.62C744.546 383.679 743.517 376.624 739.765 370.753L512.726 15.1177C507.162 6.40009 496.641 1.65497 485.338 1.65497ZM264.686 649C252.83 649 241.769 643.992 235.903 634.8L8.86416 279.169C4.86979 272.914 3.76884 265.412 5.76006 258.036C8.20437 248.985 15.0285 240.949 24.4838 235.996L465.171 5.04724C482.953 -4.26648 504.905 -0.13324 514.098 14.2668L741.137 369.898C745.127 376.149 746.228 383.659 744.237 391.028C741.796 400.086 734.972 408.118 725.516 413.075L725.139 412.369L725.516 413.075L284.825 644.016C278.39 647.388 271.407 649 264.686 649Z" fill="url(#paint14_linear)"/>
<path d="M509.916 1.81848C504.543 1.81848 498.995 2.90076 493.697 5.18701L34.281 203.297C24.9608 207.32 17.8147 214.517 14.6788 223.042C12.0795 230.101 12.4491 237.548 15.7161 244.014L210.478 629.379C217.986 644.226 238.542 650.081 256.304 642.418L715.72 444.305C725.04 440.285 732.186 433.093 735.322 424.564C737.917 417.505 737.547 410.057 734.276 403.591L539.518 18.2263C534.252 7.81055 522.559 1.81848 509.916 1.81848ZM240.104 647.403C226.845 647.403 214.56 641.081 209.008 630.101L14.2455 244.736C10.7758 237.869 10.3824 229.967 13.1327 222.489C16.4196 213.548 23.8876 206.01 33.6211 201.81L493.037 3.70074C511.586 -4.29926 533.1 1.89294 540.989 17.5048L735.751 402.869C739.225 409.736 739.618 417.638 736.868 425.117C733.581 434.062 726.109 441.595 716.375 445.791L716.05 445.05L716.375 445.791L256.964 643.905C251.459 646.277 245.696 647.403 240.104 647.403Z" fill="url(#paint15_linear)"/>
<path d="M534.376 5.58313C530.091 5.58313 525.704 6.28088 521.399 7.75146L46.2327 170.489C36.7416 173.736 29.0469 180.371 25.124 188.685C21.7576 195.81 21.416 203.622 24.1504 210.681L184.132 623.72C190.292 639.634 210.24 647.465 228.598 641.175L703.769 478.446C713.256 475.191 720.954 468.559 724.877 460.246C728.24 453.12 728.586 445.308 725.851 438.25L565.87 25.2105C561.152 13.0301 548.35 5.58313 534.376 5.58313ZM215.641 644.991C200.983 644.991 187.542 637.14 182.57 624.308L22.5922 211.269C19.6909 203.791 20.0526 195.52 23.6097 187.991C27.7233 179.273 35.7678 172.324 45.6882 168.928L520.851 6.19855C540.048 -0.37793 560.945 7.88892 567.428 24.6223L727.409 437.661C730.307 445.144 729.949 453.41 726.391 460.94C722.278 469.657 714.234 476.602 704.313 480.002L704.039 479.222L704.313 480.002L229.147 642.732C224.671 644.265 220.097 644.991 215.641 644.991Z" fill="url(#paint16_linear)"/>
<path d="M558.529 10.9358C555.333 10.9358 552.078 11.336 548.827 12.1674L61.093 137.167C51.5264 139.622 43.359 145.611 38.681 153.607C34.5157 160.728 33.4067 168.861 35.5489 176.516L158.436 614.889C163.17 631.779 182.351 641.591 201.174 636.763L688.9 511.763C698.474 509.312 706.642 503.316 711.316 495.324C715.481 488.203 716.594 480.069 714.448 472.414L591.56 34.0416C587.646 20.0691 573.842 10.9358 558.529 10.9358ZM191.476 639.665C175.415 639.665 160.928 630.046 156.803 615.336L33.9155 176.959C31.646 168.873 32.8184 160.281 37.2142 152.771C42.1148 144.391 50.664 138.112 60.6678 135.547L548.401 10.5474C568.127 5.49255 588.214 15.8339 593.194 33.5947L716.081 471.971C718.351 480.058 717.178 488.65 712.787 496.159C707.886 504.54 699.333 510.818 689.329 513.383L689.114 512.571L689.329 513.383L201.599 638.383C198.213 639.25 194.811 639.665 191.476 639.665Z" fill="url(#paint17_linear)"/>
<path d="M582.193 18.5334C580.075 18.5334 577.924 18.7139 575.758 19.0864L78.8394 104.22C69.1456 105.882 60.8032 111.031 55.3462 118.718C50.3542 125.753 48.4305 134.157 49.9249 142.385L133.624 603.494C136.843 621.259 155.066 633.035 174.239 629.757L671.162 544.616L671.309 545.455L671.162 544.616C680.852 542.957 689.198 537.808 694.651 530.122C699.643 523.09 701.571 514.683 700.076 506.451L616.378 45.3452C613.52 29.5845 598.854 18.5334 582.193 18.5334ZM167.808 632C150.329 632 134.939 620.377 131.927 603.796L48.2278 142.686C46.6539 134.008 48.681 125.149 53.9392 117.745C59.6585 109.683 68.3945 104.286 78.5454 102.549L575.46 17.4117C595.575 13.9686 614.684 26.3649 618.071 45.0473L701.769 506.153C703.343 514.831 701.317 523.69 696.058 531.098C690.343 539.157 681.603 544.553 671.456 546.29L174.533 631.427C172.272 631.816 170.022 632 167.808 632Z" fill="url(#paint18_linear)"/>
<path d="M605.205 28.5281C604.128 28.5281 603.051 28.5792 601.966 28.6694L99.4193 72.0536C90.0275 72.8615 81.5062 77.1241 75.4332 84.0535C69.3641 90.9712 66.4587 99.7279 67.2536 108.7L109.904 589.681C110.699 598.654 115.095 606.779 122.292 612.552C129.494 618.332 138.64 621.073 148.031 620.261L650.578 576.881C669.958 575.206 684.389 558.763 682.748 540.23L640.097 59.2496C639.302 50.277 634.903 42.1553 627.705 36.3789C621.33 31.2612 613.444 28.5281 605.205 28.5281ZM144.796 622.124C136.152 622.124 127.877 619.257 121.191 613.889C113.624 607.818 108.998 599.273 108.159 589.83L65.5129 108.854C64.6742 99.4105 67.7266 90.2026 74.1096 82.9241C80.4847 75.6575 89.4195 71.1831 99.2683 70.3361L601.815 26.9514C611.668 26.1044 621.25 28.9753 628.806 35.0419C636.377 41.1125 641.004 49.6575 641.842 59.1006L684.488 540.081C686.213 559.563 671.07 576.842 650.729 578.599L148.182 621.979C147.046 622.077 145.917 622.124 144.796 622.124Z" fill="url(#paint19_linear)"/>
<path d="M123.071 40.7495C103.613 40.7495 87.774 56.3654 87.774 75.5587V573.438C87.774 592.631 103.613 608.247 123.071 608.247H627.929C647.391 608.247 663.226 592.631 663.226 573.438V75.5587C663.226 56.3654 647.391 40.7495 627.929 40.7495H123.071ZM627.929 610H123.071C102.63 610 86 593.596 86 573.438V75.5587C86 55.4005 102.63 39 123.071 39H627.929C648.374 39 665 55.4005 665 75.5587V573.438C665 593.596 648.374 610 627.929 610Z" fill="url(#paint20_linear)"/>
<defs>
<linearGradient id="paint0_linear" x1="158.825" y1="324.465" x2="591.171" y2="324.465" gradientUnits="userSpaceOnUse">
<stop stop-color="#3DDEED"/>
<stop offset="0.996575" stop-color="#CB00DD"/>
<stop offset="1" stop-color="#CB00DD"/>
</linearGradient>
<linearGradient id="paint1_linear" x1="136.963" y1="324.465" x2="613.039" y2="324.465" gradientUnits="userSpaceOnUse">
<stop stop-color="#3DDEED"/>
<stop offset="0.996575" stop-color="#CB00DD"/>
<stop offset="1" stop-color="#CB00DD"/>
</linearGradient>
<linearGradient id="paint2_linear" x1="116.052" y1="324.465" x2="633.948" y2="324.465" gradientUnits="userSpaceOnUse">
<stop stop-color="#3DDEED"/>
<stop offset="0.996575" stop-color="#CB00DD"/>
<stop offset="1" stop-color="#CB00DD"/>
</linearGradient>
<linearGradient id="paint3_linear" x1="96.3227" y1="324.465" x2="653.674" y2="324.465" gradientUnits="userSpaceOnUse">
<stop stop-color="#3DDEED"/>
<stop offset="0.996575" stop-color="#CB00DD"/>
<stop offset="1" stop-color="#CB00DD"/>
</linearGradient>
<linearGradient id="paint4_linear" x1="77.9253" y1="324.466" x2="672.076" y2="324.466" gradientUnits="userSpaceOnUse">
<stop stop-color="#3DDEED"/>
<stop offset="0.996575" stop-color="#CB00DD"/>
<stop offset="1" stop-color="#CB00DD"/>
</linearGradient>
<linearGradient id="paint5_linear" x1="61.061" y1="324.465" x2="688.94" y2="324.465" gradientUnits="userSpaceOnUse">
<stop stop-color="#3DDEED"/>
<stop offset="0.996575" stop-color="#CB00DD"/>
<stop offset="1" stop-color="#CB00DD"/>
</linearGradient>
<linearGradient id="paint6_linear" x1="45.914" y1="324.465" x2="704.086" y2="324.465" gradientUnits="userSpaceOnUse">
<stop stop-color="#3DDEED"/>
<stop offset="0.996575" stop-color="#CB00DD"/>
<stop offset="1" stop-color="#CB00DD"/>
</linearGradient>
<linearGradient id="paint7_linear" x1="32.6596" y1="324.466" x2="717.341" y2="324.466" gradientUnits="userSpaceOnUse">
<stop stop-color="#3DDEED"/>
<stop offset="0.996575" stop-color="#CB00DD"/>
<stop offset="1" stop-color="#CB00DD"/>
</linearGradient>
<linearGradient id="paint8_linear" x1="21.4594" y1="324.465" x2="728.537" y2="324.465" gradientUnits="userSpaceOnUse">
<stop stop-color="#3DDEED"/>
<stop offset="0.996575" stop-color="#CB00DD"/>
<stop offset="1" stop-color="#CB00DD"/>
</linearGradient>
<linearGradient id="paint9_linear" x1="12.4652" y1="324.465" x2="737.532" y2="324.465" gradientUnits="userSpaceOnUse">
<stop stop-color="#3DDEED"/>
<stop offset="0.996575" stop-color="#CB00DD"/>
<stop offset="1" stop-color="#CB00DD"/>
</linearGradient>
<linearGradient id="paint10_linear" x1="5.81182" y1="324.465" x2="744.185" y2="324.465" gradientUnits="userSpaceOnUse">
<stop stop-color="#3DDEED"/>
<stop offset="0.996575" stop-color="#CB00DD"/>
<stop offset="1" stop-color="#CB00DD"/>
</linearGradient>
<linearGradient id="paint11_linear" x1="1.62293" y1="324.465" x2="748.378" y2="324.465" gradientUnits="userSpaceOnUse">
<stop stop-color="#3DDEED"/>
<stop offset="0.996575" stop-color="#CB00DD"/>
<stop offset="1" stop-color="#CB00DD"/>
</linearGradient>
<linearGradient id="paint12_linear" x1="-0.00272669" y1="324.466" x2="750" y2="324.466" gradientUnits="userSpaceOnUse">
<stop stop-color="#3DDEED"/>
<stop offset="0.996575" stop-color="#CB00DD"/>
<stop offset="1" stop-color="#CB00DD"/>
</linearGradient>
<linearGradient id="paint13_linear" x1="1.03437" y1="324.465" x2="748.966" y2="324.465" gradientUnits="userSpaceOnUse">
<stop stop-color="#3DDEED"/>
<stop offset="0.996575" stop-color="#CB00DD"/>
<stop offset="1" stop-color="#CB00DD"/>
</linearGradient>
<linearGradient id="paint14_linear" x1="4.79029" y1="324.533" x2="745.206" y2="324.533" gradientUnits="userSpaceOnUse">
<stop stop-color="#3DDEED"/>
<stop offset="0.996575" stop-color="#CB00DD"/>
<stop offset="1" stop-color="#CB00DD"/>
</linearGradient>
<linearGradient id="paint15_linear" x1="11.3203" y1="323.803" x2="738.676" y2="323.803" gradientUnits="userSpaceOnUse">
<stop stop-color="#3DDEED"/>
<stop offset="0.996575" stop-color="#CB00DD"/>
<stop offset="1" stop-color="#CB00DD"/>
</linearGradient>
<linearGradient id="paint16_linear" x1="20.6527" y1="324.465" x2="729.349" y2="324.465" gradientUnits="userSpaceOnUse">
<stop stop-color="#3DDEED"/>
<stop offset="0.996575" stop-color="#CB00DD"/>
<stop offset="1" stop-color="#CB00DD"/>
</linearGradient>
<linearGradient id="paint17_linear" x1="32.7867" y1="324.465" x2="717.21" y2="324.465" gradientUnits="userSpaceOnUse">
<stop stop-color="#3DDEED"/>
<stop offset="0.996575" stop-color="#CB00DD"/>
<stop offset="1" stop-color="#CB00DD"/>
</linearGradient>
<linearGradient id="paint18_linear" x1="47.7072" y1="324.42" x2="702.29" y2="324.42" gradientUnits="userSpaceOnUse">
<stop stop-color="#3DDEED"/>
<stop offset="0.996575" stop-color="#CB00DD"/>
<stop offset="1" stop-color="#CB00DD"/>
</linearGradient>
<linearGradient id="paint19_linear" x1="65.3777" y1="324.465" x2="684.624" y2="324.465" gradientUnits="userSpaceOnUse">
<stop stop-color="#3DDEED"/>
<stop offset="0.996575" stop-color="#CB00DD"/>
<stop offset="1" stop-color="#CB00DD"/>
</linearGradient>
<linearGradient id="paint20_linear" x1="86" y1="324.498" x2="665.004" y2="324.498" gradientUnits="userSpaceOnUse">
<stop stop-color="#3DDEED"/>
<stop offset="0.996575" stop-color="#CB00DD"/>
<stop offset="1" stop-color="#CB00DD"/>
</linearGradient>
</defs>
</svg>
