<svg width="44" height="44" viewBox="0 0 44 44" fill="none" xmlns="http://www.w3.org/2000/svg">
<g filter="url(#filter0_d)">
<path d="M10 20.6576V31.9891L19.001 26.3233L10 20.6576Z" fill="#F1F1F1"/>
<path d="M29.8203 23.2452L29.8144 23.2491L24.8387 26.3233L24.9784 26.4094L33.9999 31.9832V20.663L29.8203 23.2452Z" fill="#F1F1F1"/>
<path d="M21.8993 26.2305L11.0892 33.0353H32.9141L21.8993 26.2305Z" fill="#F1F1F1"/>
<path d="M31.6143 17.3263V20.4143L33.787 19.0719L33.8006 19.0826L33.8285 19.046L33.8446 19.025L31.6143 17.3263Z" fill="#F1F1F1"/>
<path d="M25.8305 12.9208L22.4611 10.3549L22.0001 10L21.5275 10.3636L21.5252 10.3654L18.1655 12.9208H13.8328V21.3378L13.8392 21.3417L20.3768 25.4569L21.8927 24.503L23.4442 25.4618L30.1484 21.3197L30.1675 21.308V12.9208L25.8305 12.9208ZM25.8768 22.5805H18.1234V21.1145H25.8767L25.8768 22.5805ZM25.8768 19.9504H18.1234V18.4844H25.8767L25.8768 19.9504ZM25.8768 17.3199H18.1234V15.8539H25.8767L25.8768 17.3199Z" fill="#F1F1F1"/>
<path d="M10.1555 19.0132L10.1701 19.0328L10.2048 19.0782L10.2219 19.065L11.4734 19.8527L11.5443 19.8977L12.3731 20.4191V17.3268L10.1555 19.0132Z" fill="#F1F1F1"/>
</g>
<defs>
<filter id="filter0_d" x="0" y="0" width="43.9999" height="43.0353" filterUnits="userSpaceOnUse" color-interpolation-filters="sRGB">
<feFlood flood-opacity="0" result="BackgroundImageFix"/>
<feColorMatrix in="SourceAlpha" type="matrix" values="0 0 0 0 0 0 0 0 0 0 0 0 0 0 0 0 0 0 127 0"/>
<feOffset/>
<feGaussianBlur stdDeviation="5"/>
<feColorMatrix type="matrix" values="0 0 0 0 0.239216 0 0 0 0 0.870588 0 0 0 0 0.929412 0 0 0 0.5 0"/>
<feBlend mode="normal" in2="BackgroundImageFix" result="effect1_dropShadow"/>
<feBlend mode="normal" in="SourceGraphic" in2="effect1_dropShadow" result="shape"/>
</filter>
</defs>
</svg>
