<svg width="29" height="60" viewBox="0 0 29 60" fill="none" xmlns="http://www.w3.org/2000/svg">
<g clip-path="url(#clip0)">
<path d="M1 14.4578C1 7.02528 7.02528 1 14.4578 1C21.8904 1 27.9157 7.02528 27.9157 14.4578V32.5301C27.9157 39.9627 21.8904 45.988 14.4578 45.988C7.02528 45.988 1 39.9627 1 32.5301V14.4578Z" stroke="#F1F1F1" stroke-width="2"/>
<path d="M12.2892 10.8434C12.2892 9.64563 13.2601 8.67468 14.4579 8.67468C15.6556 8.67468 16.6265 9.64563 16.6265 10.8434V16.1446C16.6265 17.3423 15.6556 18.3132 14.4579 18.3132C13.2601 18.3132 12.2892 17.3423 12.2892 16.1446V10.8434Z" fill="#F1F1F1"/>
<path d="M4.79044 53.4337C5.02333 53.0304 5.53913 52.8922 5.94251 53.125L14.9158 58.3058C15.3192 58.5387 15.4574 59.0545 15.2245 59.4578C14.9916 59.8612 14.4758 59.9994 14.0724 59.7665L5.09913 54.5858C4.69576 54.3529 4.55755 53.8371 4.79044 53.4337Z" fill="#F1F1F1"/>
<path d="M24.1401 53.4337C24.373 53.8371 24.2348 54.3529 23.8314 54.5858L14.8582 59.7665C14.4548 59.9994 13.939 59.8612 13.7061 59.4578C13.4732 59.0544 13.6114 58.5386 14.0148 58.3058L22.9881 53.125C23.3915 52.8921 23.9073 53.0304 24.1401 53.4337Z" fill="#F1F1F1"/>
</g>
<defs>
<clipPath id="clip0">
<rect width="28.9157" height="60" fill="white"/>
</clipPath>
</defs>
</svg>
