<svg width="29" height="60" viewBox="0 0 29 60" fill="none" xmlns="http://www.w3.org/2000/svg">
<g clip-path="url(#clip0)">
<path d="M1 27.4578C1 20.0253 7.02528 14 14.4578 14C21.8904 14 27.9157 20.0253 27.9157 27.4578V45.5301C27.9157 52.9627 21.8904 58.988 14.4578 58.988C7.02528 58.988 1 52.9627 1 45.5301V27.4578Z" stroke="#F1F1F1" stroke-width="2"/>
<path d="M12.2892 23.8435C12.2892 22.6458 13.2601 21.6748 14.4579 21.6748C15.6556 21.6748 16.6265 22.6458 16.6265 23.8435V29.1447C16.6265 30.3424 15.6556 31.3134 14.4579 31.3134C13.2601 31.3134 12.2892 30.3424 12.2892 29.1447V23.8435Z" fill="#F1F1F1"/>
<path d="M24.1402 6.57816C23.9073 6.98154 23.3915 7.11975 22.9881 6.88686L14.0148 1.70614C13.6114 1.47325 13.4732 0.957448 13.7061 0.554069C13.939 0.15069 14.4548 0.0124816 14.8582 0.245373L23.8315 5.42609C24.2348 5.65898 24.3731 6.17478 24.1402 6.57816Z" fill="#F1F1F1"/>
<path d="M4.79046 6.57817C4.55757 6.1748 4.69578 5.659 5.09916 5.42611L14.0724 0.245383C14.4758 0.0124916 14.9916 0.150699 15.2245 0.554078C15.4574 0.957457 15.3192 1.47326 14.9158 1.70615L5.94253 6.88687C5.53915 7.11976 5.02335 6.98155 4.79046 6.57817Z" fill="#F1F1F1"/>
</g>
<defs>
<clipPath id="clip0">
<rect width="28.9157" height="60" fill="white"/>
</clipPath>
</defs>
</svg>
