<svg width="50" height="36" viewBox="0 0 50 36" fill="none" xmlns="http://www.w3.org/2000/svg">
<g filter="url(#filter0_d)">
<path d="M34.0172 19.0175L39.9819 10H30.8345L30.6637 10.6616C30.2253 12.3604 29.4028 14.6628 27.9735 15.9842C27.7968 16.1474 27.6295 16.2786 27.4755 16.3836V10H19.5084V11.7637H20.2527V15.761C19.3596 14.9755 18.2373 13.4766 17.9434 10.7861L17.8577 10H10L10.2699 11.0931C11.24 15.0244 12.6955 18.2448 14.5961 20.6653C16.1477 22.6413 17.9956 24.0923 20.0885 24.9774C21.9576 25.7678 23.6784 25.9618 24.9168 25.9618C26.0557 25.9618 26.7861 25.7977 26.8474 25.7834L27.5191 25.6269L27.5538 23.204L30.5456 25.8067H40L34.0172 19.0175Z" fill="#F1F1F1"/>
</g>
<defs>
<filter id="filter0_d" x="0" y="0" width="50" height="35.9618" filterUnits="userSpaceOnUse" color-interpolation-filters="sRGB">
<feFlood flood-opacity="0" result="BackgroundImageFix"/>
<feColorMatrix in="SourceAlpha" type="matrix" values="0 0 0 0 0 0 0 0 0 0 0 0 0 0 0 0 0 0 127 0"/>
<feOffset/>
<feGaussianBlur stdDeviation="5"/>
<feColorMatrix type="matrix" values="0 0 0 0 0.239216 0 0 0 0 0.870588 0 0 0 0 0.929412 0 0 0 0.5 0"/>
<feBlend mode="normal" in2="BackgroundImageFix" result="effect1_dropShadow"/>
<feBlend mode="normal" in="SourceGraphic" in2="effect1_dropShadow" result="shape"/>
</filter>
</defs>
</svg>
