<svg width="44" height="44" viewBox="0 0 44 44" fill="none" xmlns="http://www.w3.org/2000/svg">
<g filter="url(#filter0_d)">
<path d="M22 10C15.4089 10 10 15.4089 10 22C10 24.1753 10.5865 26.2929 11.6987 28.1456L10 34L15.8544 32.3013C17.7071 33.4135 19.8247 34 22 34C28.5911 34 34 28.5911 34 22C34 15.4089 28.5911 10 22 10ZM29.5026 27.0704L28.9443 27.6287C28.1544 28.4186 26.3378 28.356 25.1705 28.1306C21.2892 27.3809 16.7641 22.9948 15.8914 19.1965C15.4593 17.3149 15.6979 15.679 16.3219 15.0548L16.8802 14.4965C17.1884 14.1885 17.689 14.1889 17.9968 14.4965L20.2303 16.7302C20.3793 16.8793 20.461 17.0768 20.461 17.2883C20.461 17.4998 20.3793 17.6976 20.2303 17.8461L19.6722 18.4049C19.0569 19.0216 19.0569 20.0234 19.6722 20.6386L23.3605 24.2784C23.9775 24.8954 24.9762 24.8962 25.5942 24.2784L26.1525 23.7203C26.4407 23.4304 26.979 23.4295 27.2696 23.7203L29.5026 25.9532C29.8058 26.2552 29.8173 26.7554 29.5026 27.0704Z" fill="#F1F1F1"/>
</g>
<defs>
<filter id="filter0_d" x="0" y="0" width="44" height="44" filterUnits="userSpaceOnUse" color-interpolation-filters="sRGB">
<feFlood flood-opacity="0" result="BackgroundImageFix"/>
<feColorMatrix in="SourceAlpha" type="matrix" values="0 0 0 0 0 0 0 0 0 0 0 0 0 0 0 0 0 0 127 0"/>
<feOffset/>
<feGaussianBlur stdDeviation="5"/>
<feColorMatrix type="matrix" values="0 0 0 0 0.239216 0 0 0 0 0.870588 0 0 0 0 0.929412 0 0 0 0.5 0"/>
<feBlend mode="normal" in2="BackgroundImageFix" result="effect1_dropShadow"/>
<feBlend mode="normal" in="SourceGraphic" in2="effect1_dropShadow" result="shape"/>
</filter>
</defs>
</svg>
